<svg width="24" height="24" viewBox="0 0 24 24" fill="none" xmlns="http://www.w3.org/2000/svg">
<g clip-path="url(#clip0_15014_4086)">
<mask id="mask0_15014_4086" style="mask-type:luminance" maskUnits="userSpaceOnUse" x="0" y="0" width="24" height="24">
<path d="M24 0H0V24H24V0Z" fill="white"/>
</mask>
<g mask="url(#mask0_15014_4086)">
<path d="M6.76849 7.21249H6.76316L9.59367 11.8561L12.4268 7.21249H12.4222C12.7281 6.71058 12.8949 6.13626 12.9054 5.54855C12.9158 4.96085 12.7697 4.38095 12.4818 3.86844C12.194 3.35593 11.7749 2.9293 11.2676 2.63238C10.7603 2.33546 10.1831 2.17896 9.59534 2.17896C9.00754 2.17896 8.43034 2.33546 7.92305 2.63238C7.41575 2.9293 6.99666 3.35593 6.70884 3.86844C6.42101 4.38095 6.27483 4.96085 6.28532 5.54855C6.2958 6.13626 6.46257 6.71058 6.76849 7.21249Z" stroke="#006CB4" stroke-miterlimit="10" stroke-linejoin="round"/>
<path d="M13.6071 13.5954H13.5995L17.7026 20.3269L21.8058 13.5948H21.7988C22.2422 12.8673 22.484 12.035 22.4992 11.1832C22.5145 10.3314 22.3026 9.49087 21.8855 8.74805C21.4683 8.00523 20.8609 7.38687 20.1257 6.95651C19.3905 6.52615 18.5539 6.29932 17.702 6.29932C16.85 6.29932 16.0135 6.52615 15.2782 6.95651C14.543 7.38687 13.9356 8.00523 13.5184 8.74805C13.1013 9.49087 12.8895 10.3314 12.9047 11.1832C12.9199 12.035 13.1617 12.8673 13.6051 13.5948L13.6071 13.5954Z" stroke="#006CB4" stroke-miterlimit="10" stroke-linejoin="round"/>
<path d="M18.6207 22.1843H7.30863C6.80411 22.1843 6.32027 21.9839 5.96352 21.6271C5.60677 21.2704 5.40633 20.7865 5.40633 20.282C5.40633 19.7775 5.60677 19.2936 5.96352 18.9369C6.32027 18.5801 6.80411 18.3797 7.30863 18.3797H11.0115C11.1384 18.3831 11.2648 18.361 11.3831 18.3147C11.5014 18.2684 11.6092 18.1989 11.7002 18.1103C11.7912 18.0217 11.8635 17.9158 11.9129 17.7987C11.9623 17.6817 11.9877 17.556 11.9877 17.429C11.9877 17.302 11.9623 17.1762 11.9129 17.0592C11.8635 16.9422 11.7912 16.8362 11.7002 16.7476C11.6092 16.659 11.5014 16.5895 11.3831 16.5433C11.2648 16.497 11.1384 16.4749 11.0115 16.4782H3.4023C2.89778 16.4782 2.41394 16.2778 2.05719 15.9211C1.70044 15.5643 1.5 15.0805 1.5 14.5759C1.5 14.0714 1.70044 13.5876 2.05719 13.2308C2.41394 12.8741 2.89778 12.6736 3.4023 12.6736H7.20691" stroke="#006CB4" stroke-miterlimit="10"/>
<path d="M17.8578 13.15C19.0553 13.15 20.0261 12.1792 20.0261 10.9817C20.0261 9.78415 19.0553 8.81335 17.8578 8.81335C16.6602 8.81335 15.6895 9.78415 15.6895 10.9817C15.6895 12.1792 16.6602 13.15 17.8578 13.15Z" stroke="#006CB4"/>
<path d="M9.518 6.47823C10.3471 6.47823 11.0192 5.88082 11.0192 5.14387C11.0192 4.40692 10.3471 3.80951 9.518 3.80951C8.68894 3.80951 8.01685 4.40692 8.01685 5.14387C8.01685 5.88082 8.68894 6.47823 9.518 6.47823Z" stroke="#006CB4"/>
</g>
</g>
<defs>
<clipPath id="clip0_15014_4086">
<rect width="24" height="24" fill="white"/>
</clipPath>
</defs>
</svg>
