<svg width="24" height="24" viewBox="0 0 24 24" fill="none" xmlns="http://www.w3.org/2000/svg">
<g id="Clip path group">
<mask id="mask0_16888_2265" style="mask-type:luminance" maskUnits="userSpaceOnUse" x="0" y="0" width="24" height="24">
<g id="clip-GPS-Icon-LB">
<path id="Vector" d="M24 0H0V24H24V0Z" fill="white"/>
</g>
</mask>
<g mask="url(#mask0_16888_2265)">
<g id="GPS-Icon-LB">
<g id="Group 1104">
<g id="Group 1102">
<g id="Group 1065">
<g id="Group 1064">
<path id="Path 3833" d="M6.76837 7.21249H6.76304L9.59355 11.8561L12.4267 7.21249H12.4221C12.728 6.71058 12.8948 6.13626 12.9052 5.54855C12.9157 4.96085 12.7695 4.38095 12.4817 3.86844C12.1939 3.35593 11.7748 2.9293 11.2675 2.63238C10.7602 2.33546 10.183 2.17896 9.59521 2.17896C9.00742 2.17896 8.43022 2.33546 7.92292 2.63238C7.41563 2.9293 6.99654 3.35593 6.70872 3.86844C6.42089 4.38095 6.27471 4.96085 6.28519 5.54855C6.29568 6.13626 6.46245 6.71058 6.76837 7.21249Z" stroke="#006CB4" stroke-miterlimit="10" stroke-linejoin="round"/>
</g>
</g>
<g id="Group 1103">
<g id="Group 1064_2">
<path id="Path 3833_2" d="M13.607 13.5954H13.5993L17.7025 20.3269L21.8057 13.5948H21.7987C22.2421 12.8673 22.4839 12.035 22.4991 11.1832C22.5143 10.3314 22.3025 9.49087 21.8854 8.74805C21.4682 8.00523 20.8608 7.38687 20.1256 6.95651C19.3903 6.52615 18.5538 6.29932 17.7018 6.29932C16.8499 6.29932 16.0133 6.52615 15.2781 6.95651C14.5428 7.38687 13.9354 8.00523 13.5183 8.74805C13.1012 9.49087 12.8893 10.3314 12.9046 11.1832C12.9198 12.035 13.1616 12.8673 13.605 13.5948L13.607 13.5954Z" stroke="#006CB4" stroke-miterlimit="10" stroke-linejoin="round"/>
</g>
</g>
</g>
<path id="Path 3869" d="M18.6207 22.1842H7.30863C6.80411 22.1842 6.32027 21.9838 5.96352 21.6271C5.60677 21.2703 5.40633 20.7865 5.40633 20.2819C5.40633 19.7774 5.60677 19.2936 5.96352 18.9368C6.32027 18.5801 6.80411 18.3796 7.30863 18.3796H11.0115C11.1384 18.383 11.2648 18.3609 11.3831 18.3146C11.5014 18.2684 11.6092 18.1989 11.7002 18.1103C11.7912 18.0216 11.8635 17.9157 11.9129 17.7987C11.9623 17.6817 11.9877 17.5559 11.9877 17.4289C11.9877 17.3019 11.9623 17.1762 11.9129 17.0591C11.8635 16.9421 11.7912 16.8362 11.7002 16.7476C11.6092 16.6589 11.5014 16.5895 11.3831 16.5432C11.2648 16.4969 11.1384 16.4748 11.0115 16.4782H3.4023C2.89778 16.4782 2.41394 16.2778 2.05719 15.921C1.70044 15.5643 1.5 15.0804 1.5 14.5759C1.5 14.0714 1.70044 13.5875 2.05719 13.2308C2.41394 12.874 2.89778 12.6736 3.4023 12.6736H7.20691" stroke="#006CB4" stroke-miterlimit="10"/>
<g id="Ellipse 273">
<path id="Vector_2" d="M17.8578 13.1499C19.0553 13.1499 20.0261 12.1791 20.0261 10.9816C20.0261 9.78403 19.0553 8.81323 17.8578 8.81323C16.6602 8.81323 15.6895 9.78403 15.6895 10.9816C15.6895 12.1791 16.6602 13.1499 17.8578 13.1499Z" stroke="#006CB4"/>
</g>
<g id="Ellipse 274">
<path id="Vector_3" d="M9.51776 6.47805C10.3468 6.47805 11.0189 5.88063 11.0189 5.14369C11.0189 4.40674 10.3468 3.80933 9.51776 3.80933C8.68869 3.80933 8.0166 4.40674 8.0166 5.14369C8.0166 5.88063 8.68869 6.47805 9.51776 6.47805Z" stroke="#006CB4"/>
</g>
</g>
</g>
</g>
</g>
</svg>
