<svg width="27" height="27" fill="none" xmlns="http://www.w3.org/2000/svg"><path d="M8.438 6.75H2.53a.844.844 0 110-1.688h5.906a.844.844 0 000 1.688z" fill="#595959"/><path d="M25.313 5.906a.844.844 0 01-.844.844H8.437a.844.844 0 100-1.688H24.47a.844.844 0 01.843.844zM18.563 14.344H2.53a.844.844 0 110-1.688h16.032a.843.843 0 100 1.688z" fill="#595959"/><path d="M25.313 13.5a.844.844 0 01-.844.844h-5.907a.843.843 0 100-1.688h5.907a.844.844 0 01.843.844zM8.438 21.938H2.53a.844.844 0 010-1.688h5.906a.844.844 0 000 1.688z" fill="#595959"/><path d="M25.313 21.094a.844.844 0 01-.844.843H8.437a.844.844 0 000-1.687H24.47a.844.844 0 01.843.844z" fill="#595959"/><path d="M9.897 20.25a1.688 1.688 0 10-2.92 1.694 1.688 1.688 0 002.92-1.694zm-2.303.844a.844.844 0 111.687 0 .844.844 0 01-1.687 0z" fill="#595959"/><path d="M10.817 20.25a2.531 2.531 0 00-4.759 0 2.422 2.422 0 000 1.687 2.531 2.531 0 004.76 0 2.42 2.42 0 000-1.687zm-1.535.844a.843.843 0 11-1.687 0 .843.843 0 011.687 0zM20.022 12.657a1.688 1.688 0 10-2.92 1.693 1.688 1.688 0 002.92-1.693zm-2.303.843a.843.843 0 111.687 0 .843.843 0 01-1.687 0z" fill="#595959"/><path d="M20.942 12.656a2.53 2.53 0 00-4.759 0 2.422 2.422 0 000 1.688 2.531 2.531 0 004.76 0 2.42 2.42 0 000-1.688zm-1.535.844a.844.844 0 11-1.688 0 .844.844 0 011.688 0zM9.897 5.063a1.688 1.688 0 10-2.92 1.693 1.688 1.688 0 002.92-1.693zm-2.303.844a.844.844 0 111.687 0 .844.844 0 01-1.687 0z" fill="#595959"/><path d="M10.817 5.062a2.53 2.53 0 00-4.759 0 2.422 2.422 0 000 1.688 2.531 2.531 0 004.76 0 2.42 2.42 0 000-1.688zm-1.535.844a.844.844 0 11-1.688 0 .844.844 0 011.688 0z" fill="#595959"/></svg>