<svg xmlns="http://www.w3.org/2000/svg" xmlns:xlink="http://www.w3.org/1999/xlink" width="150" height="150"><defs><clipPath id="a"><path d="M0 0h150v150H0z"/></clipPath></defs><g clip-path="url(#a)"><g fill="none" stroke="#133b5c" data-name="Group 1114" transform="translate(26.508 24.004)"><g data-name="Group 697"><path stroke-miterlimit="10" stroke-width="2" d="M0 66.477h97.985V74.4H0z" data-name="Rectangle 1671"/><g data-name="Group 696" transform="translate(7.889)"><path d="M78.562.62H10.057C8.044.62 0-.986 0 .972v65.505h21.72a31.364 31.364 0 1150.263-30.121 28.17 28.17 0 01.994 7.419 28.538 28.538 0 01-11.361 22.7h20.588V4.162A3.6 3.6 0 0078.562.62z" data-name="Path 3625"/><path stroke-miterlimit="10" stroke-width="2" d="M82.209.972H0v65.505h21.72a31.367 31.367 0 1138.759 0h21.725z" data-name="Path 3626"/><circle cx="3.892" cy="3.892" r="3.892" data-name="Ellipse 251" transform="translate(37.212 37.93)"/><circle cx="9.538" cy="9.538" r="9.538" stroke-miterlimit="10" stroke-width="2" data-name="Ellipse 252" transform="translate(31.567 32.285)"/><path stroke-miterlimit="10" stroke-width="2" d="M34.641 59.55l7.108 6.926h16.456l-21.7-9.679a1.689 1.689 0 00-1.864 2.753z" data-name="Path 3627"/></g></g><path stroke-miterlimit="10" stroke-width="2" d="M12.526 83.322l7.169-3.474-.208 11.186z" data-name="Path 3628"/><path stroke-miterlimit="10" stroke-width="2" d="M28.875 84.748l8.736 2.628-8.736 5.824z" data-name="Path 3629"/><path stroke-miterlimit="10" stroke-width="2" d="M26.498 103.209l8.736-1.872-2.288 5.2z" data-name="Path 3630"/><path stroke-miterlimit="10" stroke-width="2" d="M48.992 84.478l-5.021-5.408 12.481 2.7z" data-name="Path 3631"/><path stroke-miterlimit="10" stroke-width="2" d="M47.203 90.926l-2.552 6.24 8.676-2.467z" data-name="Path 3632"/><path stroke-miterlimit="10" stroke-width="2" d="M60.366 89.107l7.563-4.629V94.7z" data-name="Path 3633"/><path stroke-miterlimit="10" stroke-width="2" d="M73.574 82.553l2.912 5.593 6.448-7.333z" data-name="Path 3634"/><path stroke-miterlimit="10" stroke-width="2" d="M64.148 101.951h7.9l-3.952 7.072z" data-name="Path 3635"/><path stroke-miterlimit="10" stroke-width="2" d="M42.007 105.488h7.812l-6.98 7.488z" data-name="Path 3636"/></g></g></svg>