<svg width="28" height="28" viewBox="0 0 28 28" fill="none" xmlns="http://www.w3.org/2000/svg">
<path d="M4.25179 15.2565C4.68282 16.2707 5.30939 17.1901 6.09574 17.9621C6.88208 18.7342 7.8128 19.3438 8.83475 19.7562C9.85669 20.1686 10.9499 20.3756 12.0518 20.3655C13.1538 20.3554 14.243 20.1284 15.2572 19.6974C16.2714 19.2663 17.1908 18.6398 17.9629 17.8534C18.7349 17.0671 19.3446 16.1363 19.7569 15.1144C20.1693 14.0924 20.3763 12.9993 20.3662 11.8973C20.3561 10.7954 20.1291 9.70617 19.6981 8.69195C19.267 7.67773 18.6405 6.75834 17.8541 5.98627C17.0678 5.2142 16.1371 4.60458 15.1151 4.1922C14.0932 3.77983 13 3.57278 11.898 3.58287C10.7961 3.59297 9.70688 3.82002 8.69266 4.25105C7.67844 4.68208 6.75905 5.30866 5.98699 6.09501C5.21492 6.88135 4.6053 7.81207 4.19293 8.83402C3.78055 9.85597 3.5735 10.9491 3.5836 12.0511C3.5937 13.1531 3.82075 14.2422 4.25179 15.2565Z" stroke="#E4ECED" stroke-linecap="round" stroke-linejoin="round"/>
<path d="M17.9082 17.9075L24.4165 24.4167" stroke="#E4ECED" stroke-linecap="round" stroke-linejoin="round"/>
</svg>
