<svg xmlns="http://www.w3.org/2000/svg" xmlns:xlink="http://www.w3.org/1999/xlink" width="150" height="150"><defs><clipPath id="b"><path d="M0 0h61v61H0z" data-name="Rectangle 1759" transform="translate(0 -.475)"/></clipPath><clipPath id="a"><path d="M0 0h150v150H0z"/></clipPath></defs><g clip-path="url(#a)"><g data-name="Group 1308"><g data-name="Group 1114" transform="translate(26.508 24.004)"><g data-name="Group 697"><path fill="none" stroke="#133b5c" stroke-miterlimit="10" stroke-width="2" d="M0 66.477h97.985V74.4H0z" data-name="Rectangle 1671"/></g><path fill="none" stroke="#133b5c" stroke-miterlimit="10" stroke-width="2" d="M28.875 84.748l8.736 2.628-8.736 5.824z" data-name="Path 3629"/><path fill="none" stroke="#133b5c" stroke-miterlimit="10" stroke-width="2" d="M48.992 84.478l-5.021-5.408 12.481 2.7z" data-name="Path 3631"/><path fill="none" stroke="#133b5c" stroke-miterlimit="10" stroke-width="2" d="M47.203 90.926l-2.552 6.24 8.676-2.467z" data-name="Path 3632"/><path fill="none" stroke="#133b5c" stroke-miterlimit="10" stroke-width="2" d="M60.366 89.107l7.563-4.629V94.7z" data-name="Path 3633"/></g><g transform="rotate(-53 98.925 -9.766)"><g data-name="Group 837" transform="translate(11 22.822)"><g fill="none" stroke="#133b5c" data-name="Group 836"><path stroke-width="2" d="M1.764 0h45.242a1.764 1.764 0 011.764 1.764v30.651a1.764 1.764 0 01-1.764 1.764l-35.1-1C3.752 21.879.846 18.26-.026 17.1c-.061-.049.1.168.1-.079L0 1.764A1.764 1.764 0 011.764 0z" data-name="Rectangle 1698"/><g stroke-linecap="round" stroke-linejoin="round" stroke-width="2.065" data-name="Group 835" transform="translate(7.127 7.828)"><path d="M0 0h11.521v6.029H0z" data-name="Rectangle 1700"/><path d="M7.404 17.944H0" data-name="Line 177"/><path d="M20.96 17.944h-7.404" data-name="Line 178"/><path d="M34.516 17.944h-7.404" data-name="Line 179"/><path d="M28.487 0h6.029v6.029h-6.029z" data-name="Rectangle 1701"/></g></g></g></g><g clip-path="url(#b)" transform="rotate(36 14.016 72.782)"><g fill="none" stroke="#133b5c" stroke-linecap="round" stroke-linejoin="round" stroke-width="2" data-name="Group 842" transform="translate(3.155 6.658)"><path d="M34.27 13.003h17.525a2.421 2.421 0 012.421 2.421v28.01a2.421 2.421 0 01-2.421 2.423H2.421A2.421 2.421 0 010 43.436v-28.01a2.421 2.421 0 012.421-2.421h17.226" data-name="Rectangle 1702"/><g data-name="Group 838" transform="translate(20.085)"><path d="M0 0v15.767a7.021 7.021 0 0014.042 0V0z" data-name="Path 3738"/><circle cx="2.782" cy="2.782" r="2.782" data-name="Ellipse 258" transform="translate(4.24 12.985)"/></g><g data-name="Group 841" transform="translate(4.697 18.868)"><g data-name="Group 839"><ellipse cx="4.515" cy="5.068" data-name="Ellipse 259" rx="4.515" ry="5.068" transform="translate(3.241)"/><path d="M10.35 12.359l-2.592 4.153-2.592-4.153L0 16.512v4.611h15.515v-4.611z" data-name="Path 3739"/></g><g data-name="Group 840" transform="translate(28.394 6.307)"><path d="M0 0h16.43" data-name="Line 180"/><path d="M0 4.255h16.43" data-name="Line 181"/><path d="M0 8.51h6.341" data-name="Line 182"/></g></g></g></g></g></g></svg>