<svg width="32" height="32" viewBox="0 0 32 32" fill="none" xmlns="http://www.w3.org/2000/svg">
<path d="M16.4307 28.2688L16.4423 28.2769C17.4481 28.9173 18.6422 29.1954 19.8274 29.0653C21.0127 28.9351 22.118 28.4045 22.9608 27.5611L23.693 26.8289C23.8552 26.6667 23.9839 26.4742 24.0718 26.2623C24.1596 26.0504 24.2048 25.8232 24.2048 25.5939C24.2048 25.3645 24.1596 25.1373 24.0718 24.9254C23.9839 24.7135 23.8552 24.521 23.693 24.3588L20.6048 21.273C20.4427 21.1108 20.2502 20.982 20.0382 20.8942C19.8263 20.8064 19.5992 20.7612 19.3698 20.7612C19.1404 20.7612 18.9133 20.8064 18.7014 20.8942C18.4895 20.982 18.2969 21.1108 18.1348 21.273C17.8074 21.6003 17.3633 21.7842 16.9003 21.7842C16.4374 21.7842 15.9933 21.6003 15.6659 21.273L10.7281 16.3341C10.4008 16.0066 10.2169 15.5626 10.2169 15.0996C10.2169 14.6366 10.4008 14.1926 10.7281 13.8652C10.8904 13.703 11.0191 13.5105 11.1069 13.2986C11.1947 13.0867 11.2399 12.8595 11.2399 12.6302C11.2399 12.4008 11.1947 12.1736 11.1069 11.9617C11.0191 11.7498 10.8904 11.5573 10.7281 11.3951L7.64114 8.30931C7.31371 7.98198 6.86968 7.7981 6.40669 7.7981C5.94371 7.7981 5.49968 7.98198 5.17225 8.30931L4.43891 9.04148C3.59569 9.88444 3.06528 10.9899 2.93533 12.1751C2.80538 13.3603 3.08366 14.5544 3.7242 15.56L3.73119 15.5716C7.11405 20.5767 11.425 24.8868 16.4307 28.2688Z" stroke="#1F1F20" stroke-linecap="round" stroke-linejoin="round"/>
<path d="M15.127 11.6349C16.5162 11.6349 17.8485 12.1868 18.8308 13.1691C19.8132 14.1514 20.365 15.4838 20.365 16.873" stroke="#1F1F20" stroke-linecap="round" stroke-linejoin="round"/>
<path d="M15.127 7.26984C17.6739 7.26984 20.1165 8.2816 21.9174 10.0825C23.7184 11.8835 24.7301 14.3261 24.7301 16.873" stroke="#1F1F20" stroke-linecap="round" stroke-linejoin="round"/>
<path d="M15.127 2.90472C18.8316 2.90472 22.3844 4.37638 25.004 6.99593C27.6236 9.61549 29.0952 13.1684 29.0952 16.873" stroke="#1F1F20" stroke-linecap="round" stroke-linejoin="round"/>
</svg>
