<svg width="32" height="32" viewBox="0 0 32 32" fill="none" xmlns="http://www.w3.org/2000/svg">
<path d="M16.4306 28.2688L16.4422 28.2769C17.448 28.9173 18.6422 29.1954 19.8274 29.0653C21.0126 28.9351 22.1179 28.4045 22.9608 27.5611L23.6929 26.8289C23.8552 26.6667 23.9839 26.4742 24.0717 26.2623C24.1595 26.0504 24.2047 25.8232 24.2047 25.5939C24.2047 25.3645 24.1595 25.1373 24.0717 24.9254C23.9839 24.7135 23.8552 24.521 23.6929 24.3588L20.6048 21.273C20.4426 21.1108 20.2501 20.982 20.0382 20.8942C19.8263 20.8064 19.5991 20.7612 19.3698 20.7612C19.1404 20.7612 18.9132 20.8064 18.7013 20.8942C18.4894 20.982 18.2969 21.1108 18.1347 21.273C17.8073 21.6003 17.3633 21.7842 16.9003 21.7842C16.4373 21.7842 15.9933 21.6003 15.6658 21.273L10.7281 16.3341C10.4007 16.0066 10.2168 15.5626 10.2168 15.0996C10.2168 14.6366 10.4007 14.1926 10.7281 13.8652C10.8903 13.703 11.019 13.5105 11.1068 13.2986C11.1947 13.0867 11.2399 12.8595 11.2399 12.6302C11.2399 12.4008 11.1947 12.1736 11.1068 11.9617C11.019 11.7498 10.8903 11.5573 10.7281 11.3951L7.64107 8.30931C7.31365 7.98198 6.86962 7.7981 6.40663 7.7981C5.94365 7.7981 5.49961 7.98198 5.17219 8.30931L4.43885 9.04148C3.59562 9.88444 3.06521 10.9899 2.93526 12.1751C2.80531 13.3603 3.0836 14.5544 3.72414 15.56L3.73113 15.5716C7.11398 20.5767 11.4249 24.8868 16.4306 28.2688Z" stroke="#E4ECED" stroke-linecap="round" stroke-linejoin="round"/>
<path d="M15.127 11.635C16.5162 11.635 17.8485 12.1869 18.8308 13.1692C19.8132 14.1515 20.365 15.4839 20.365 16.8731" stroke="#E4ECED" stroke-linecap="round" stroke-linejoin="round"/>
<path d="M15.127 7.2699C17.6739 7.2699 20.1165 8.28166 21.9174 10.0826C23.7184 11.8835 24.7301 14.3262 24.7301 16.8731" stroke="#E4ECED" stroke-linecap="round" stroke-linejoin="round"/>
<path d="M15.127 2.90479C18.8316 2.90479 22.3844 4.37644 25.004 6.99599C27.6236 9.61555 29.0952 13.1684 29.0952 16.873" stroke="#E4ECED" stroke-linecap="round" stroke-linejoin="round"/>
</svg>
