<svg xmlns="http://www.w3.org/2000/svg" xmlns:xlink="http://www.w3.org/1999/xlink" width="150" height="150"><defs><clipPath id="a"><path d="M0 0h150v150H0z"/></clipPath></defs><g clip-path="url(#a)"><g data-name="Group 1120" transform="translate(-1099.717 -671.263)"><g fill="none" stroke="#133b5c" stroke-linecap="square" stroke-miterlimit="10" stroke-width="2" data-name="Group 941" transform="translate(1107.38 695.668)"><g data-name="Group 912" transform="translate(0 79.769)"><path d="M0 0v8.2h39.346V0" data-name="Path 3789"/><path d="M0 .176h39.135" data-name="Line 216"/><path d="M36.887 11.476v21.313H2.459V11.476" data-name="Path 3790"/><path d="M22.952 18.853h-6.558a2.459 2.459 0 01-2.459-2.459h0a2.459 2.459 0 012.459-2.459h6.558a2.459 2.459 0 012.459 2.459h0a2.459 2.459 0 01-2.459 2.459z" data-name="Path 3791"/></g><g data-name="Group 913" transform="translate(47.654 79.769)"><path d="M0 0v8.2h39.346V0" data-name="Path 3789"/><path d="M0 .176h39.135" data-name="Line 216"/><path d="M36.887 11.476v21.313H2.459V11.476" data-name="Path 3790"/><path d="M22.952 18.853h-6.558a2.459 2.459 0 01-2.459-2.459h0a2.459 2.459 0 012.459-2.459h6.558a2.459 2.459 0 012.459 2.459h0a2.459 2.459 0 01-2.459 2.459z" data-name="Path 3791"/></g><g data-name="Group 1008" transform="translate(42.381)"><path d="M0 0v8.2h39.346V0" data-name="Path 3789"/><path d="M0 .176h39.135" data-name="Line 216"/><path d="M36.887 11.476v21.313H2.459V11.476" data-name="Path 3790"/><path d="M22.952 18.853h-6.558a2.459 2.459 0 01-2.459-2.459h0a2.459 2.459 0 012.459-2.459h6.558a2.459 2.459 0 012.459 2.459h0a2.459 2.459 0 01-2.459 2.459z" data-name="Path 3791"/></g><g data-name="Group 1058" transform="translate(19.673 41.319)"><path d="M0 0v8.2h39.346V0" data-name="Path 3789"/><path d="M0 .176h39.135" data-name="Line 216"/><path d="M36.887 11.476v21.313H2.459V11.476" data-name="Path 3790"/><path d="M22.952 18.853h-6.558a2.459 2.459 0 01-2.459-2.459h0a2.459 2.459 0 012.459-2.459h6.558a2.459 2.459 0 012.459 2.459h0a2.459 2.459 0 01-2.459 2.459z" data-name="Path 3791"/></g><g data-name="Group 914" transform="translate(95.229 79.769)"><path d="M0 0v8.2h39.346V0" data-name="Path 3789"/><path d="M0 .176h39.135" data-name="Line 216"/><path d="M36.887 11.476v21.313H2.459V11.476" data-name="Path 3790"/><path d="M22.952 18.853h-6.558a2.459 2.459 0 01-2.459-2.459h0a2.459 2.459 0 012.459-2.459h6.558a2.459 2.459 0 012.459 2.459h0a2.459 2.459 0 01-2.459 2.459z" data-name="Path 3791"/></g><g data-name="Group 916" transform="translate(67.327 38.526)"><path d="M4.931 13.808v21.7h38.464v-21.7" data-name="Path 3792"/><path d="M21.697 9.863H47.34L42.409 0H16.766z" data-name="Path 3793"/><path d="M11.835 9.863H0L4.931 0h11.835z" data-name="Path 3794"/><path d="M16.959.284v35.222" data-name="Line 217"/></g></g></g></g></svg>