<svg xmlns="http://www.w3.org/2000/svg" xmlns:xlink="http://www.w3.org/1999/xlink" width="150" height="150"><defs><clipPath id="a"><path d="M0 0h150v150H0z"/></clipPath></defs><g clip-path="url(#a)"><g fill="none" stroke="#133b5c" stroke-width="2" data-name="Rectangle 1712" transform="translate(2.68 58.825)"><path stroke="none" d="M0 0h53.12v77.371H0z"/><path d="M1 1h51.12v75.371H1z"/></g><g fill="none" stroke="#133b5c" stroke-width="2" data-name="Rectangle 1713" transform="translate(8.453 65.754)"><path stroke="none" d="M0 0h41.572v13.857H0z"/><path d="M1 1h39.572v11.857H1z"/></g><g fill="#133b5c" data-name="Group 962" transform="translate(12.963 86.47)"><path d="M11.109 2.575v1.686l20.556 12.627 1.373-.843z" data-name="Path 3756"/><path d="M0 0v1.687l30.54 18.758 1.373-.843z" data-name="Path 3757"/><path d="M11.109 11.119v1.686l20.556 12.628 1.373-.844z" data-name="Path 3758"/><path d="M0 8.545v1.686l30.54 18.758 1.373-.843z" data-name="Path 3759"/><path d="M11.109 19.463v1.686l20.556 12.629 1.373-.844z" data-name="Path 3760"/><path d="M0 16.888v1.686l30.54 18.76 1.373-.843z" data-name="Path 3761"/></g><g data-name="Group 1146" transform="translate(-17815 -1405)"><g fill="none" stroke="#133b5c" stroke-miterlimit="10" stroke-width="2" data-name="Group 1138" transform="translate(17166.412 1226.193)"><path d="M737.502 315.892v5.415" data-name="Line 252"/><path d="M774.652 315.892v5.415" data-name="Line 253"/><path d="M722.057 286.36v29.357" data-name="Line 254"/><path d="M790.097 286.36v29.357" data-name="Line 255"/><path d="M724.114 213.7s3.583 90.7 3.583 95.042 19.046 3.96 19.046 3.96l1.131-1.886h17.349l1.6 1.6s17 .615 17.066-1.037l3.96-97.682 2.263-.566.189-11.88 2.451-3.206-.566-5.846-3.206-1.32-.754-2.64h-64.489l-.943 3.017-3.017 1.132-.14 4.9-.048 1.7 2.452 4.526.189 9.617z" data-name="Path 3881"/><path d="M792.755 198.046l-9.994.039-4.337 15.235h-44.316s-3.394-12.069-4.337-14.52h-10.183" data-name="Path 3882"/></g><g fill="#133b5c" data-name="Group 1139" transform="translate(17905.963 1456.47)"><path d="M11.109 2.575v1.686l20.556 12.627 1.373-.843z" data-name="Path 3756"/><path d="M0 0v1.687l30.54 18.758 1.373-.843z" data-name="Path 3757"/><path d="M11.109 11.119v1.686l20.556 12.628 1.373-.844z" data-name="Path 3758"/><path d="M0 8.545v1.686l30.54 18.758 1.373-.843z" data-name="Path 3759"/><path d="M11.109 19.463v1.686l20.556 12.629 1.373-.844z" data-name="Path 3760"/><path d="M0 16.888v1.686l30.54 18.76 1.373-.843z" data-name="Path 3761"/></g></g></g></svg>