<svg xmlns="http://www.w3.org/2000/svg" xmlns:xlink="http://www.w3.org/1999/xlink" width="120" height="140" viewBox="0 0 120 140">
  <defs>
    <clipPath id="clip-path">
      <path id="Path_3602" data-name="Path 3602" d="M84.669,44.792H0V-61.874H84.669Z" transform="translate(0 61.874)" fill="none"/>
    </clipPath>
    <clipPath id="clip-Security-Risk-Icon-Blue-Box">
      <rect width="120" height="140"/>
    </clipPath>
  </defs>
  <g id="Security-Risk-Icon-Blue-Box" clip-path="url(#clip-Security-Risk-Icon-Blue-Box)">
    <g id="Group_1286" data-name="Group 1286" transform="translate(-71 -39.82)">
      <g id="Group_1285" data-name="Group 1285">
        <rect id="Rectangle_1747" data-name="Rectangle 1747" width="120" height="140" transform="translate(71 39.82)" fill="#133b5c"/>
        <g id="Group_617" data-name="Group 617" transform="translate(85.5 52.492)">
          <g id="Group_616" data-name="Group 616" transform="translate(0 0)">
            <g id="Group_614" data-name="Group 614" clip-path="url(#clip-path)">
              <g id="Group_612" data-name="Group 612" transform="translate(12.576 0.862)">
                <path id="Path_3600" data-name="Path 3600" d="M-21.026,4.884h-9.431A2.983,2.983,0,0,0-33.466,7.84V58.694m0,35.475V95.24A2.983,2.983,0,0,0-30.458,98.2h65.2a2.983,2.983,0,0,0,3.008-2.957V7.84A2.983,2.983,0,0,0,34.74,4.884H25.31M-6.9,1.125A9.078,9.078,0,0,1,2.142-6.746a9.079,9.079,0,0,1,9.046,7.871h6.249a3.361,3.361,0,0,1,3.391,3.332V9H-16.546V4.458a3.362,3.362,0,0,1,3.391-3.332ZM-.338.213a2.458,2.458,0,0,0,2.48,2.436A2.458,2.458,0,0,0,4.622.213a2.459,2.459,0,0,0-2.48-2.438A2.459,2.459,0,0,0-.338.213Z" transform="translate(33.466 6.746)" fill="none" stroke="#f2f6f7" stroke-linecap="round" stroke-linejoin="round" stroke-width="2"/>
              </g>
              <g id="Group_613" data-name="Group 613" transform="translate(0.878 28.68)">
                <path id="Path_3601" data-name="Path 3601" d="M5.863,14.662l-7.209,7.077,4.672,4.586,7.209-7.077m-31.67,18.075L-3.3,19.819l8.585,8.427L-2.53,35.913-10.054,43.3l-2.5,2.451a6.154,6.154,0,0,1-8.585,0A5.881,5.881,0,0,1-21.136,37.323Zm60.708-20.2a21.612,21.612,0,0,0,0-30.965,22.6,22.6,0,0,0-31.546,0,21.612,21.612,0,0,0,0,30.965A22.6,22.6,0,0,0,39.572,17.124Z" transform="translate(22.914 20.254)" fill="none" stroke="#f2f6f7" stroke-linecap="round" stroke-linejoin="round" stroke-width="2"/>
              </g>
            </g>
          </g>
        </g>
      </g>
      <circle id="Ellipse_273" data-name="Ellipse 273" cx="17" cy="17" r="17" transform="translate(116 86.82)" fill="#ff5633"/>
    </g>
  </g>
</svg>
