<?xml version="1.0" encoding="UTF-8"?>
<svg id="Layer_1" xmlns="http://www.w3.org/2000/svg" xmlns:xlink="http://www.w3.org/1999/xlink" version="1.1" viewBox="0 0 322.8 119">
  <!-- Generator: Adobe Illustrator 30.0.0, SVG Export Plug-In . SVG Version: 2.1.1 Build 123)  -->
  <defs>
    <style>
      .st0 {
        fill: none;
      }

      .st1 {
        isolation: isolate;
      }

      .st2 {
        fill: #ebab00;
      }

      .st3 {
        fill: #006b35;
      }

      .st4 {
        fill: #fff;
      }

      .st5 {
        fill: #00693c;
      }

      .st6 {
        clip-path: url(#clippath);
      }
    </style>
    <clipPath id="clippath">
      <rect class="st0" x="237.22" y="88.29" width="69.17" height="28.21"/>
    </clipPath>
  </defs>
  <g>
    <g>
      <g>
        <polygon class="st4" points="24 6.94 24 10.09 62.37 33.67 64.94 32.09 24 6.94"/>
        <polygon class="st4" points="3.25 2.14 3.25 5.29 60.27 40.31 62.84 38.74 3.25 2.14"/>
      </g>
      <g>
        <polygon class="st4" points="24 22.9 24 26.04 62.37 49.62 64.94 48.04 24 22.9"/>
        <polygon class="st4" points="3.25 18.09 3.25 21.24 60.27 56.26 62.84 54.69 3.25 18.09"/>
      </g>
      <polygon class="st4" points="24 38.48 24 41.62 62.37 65.2 64.94 63.62 24 38.48"/>
      <polygon class="st4" points="3.25 33.67 3.25 36.82 60.27 71.84 62.84 70.27 3.25 33.67"/>
    </g>
    <g>
      <path class="st4" d="M310.62,35.29c0-.7.13-1.36.4-1.98s.63-1.15,1.1-1.61c.46-.45,1-.82,1.62-1.08.62-.27,1.28-.4,1.98-.4s1.36.13,1.98.4c.62.27,1.16.63,1.62,1.08s.83.99,1.1,1.61c.27.62.4,1.28.4,1.98s-.13,1.36-.4,1.97-.63,1.14-1.1,1.6c-.46.45-1,.81-1.62,1.07s-1.28.39-1.98.39-1.36-.13-1.98-.39c-.62-.26-1.16-.62-1.62-1.07s-.83-.99-1.1-1.6c-.27-.61-.4-1.27-.4-1.97ZM311.43,35.29c0,.58.11,1.13.33,1.65s.53.98.92,1.37.84.7,1.36.93c.52.22,1.08.33,1.67.33s1.15-.11,1.68-.33c.52-.22.98-.53,1.36-.93.39-.39.69-.85.92-1.37.22-.52.33-1.07.33-1.65s-.11-1.15-.33-1.67c-.22-.52-.53-.98-.92-1.36-.39-.39-.84-.69-1.36-.92-.52-.22-1.08-.33-1.68-.33s-1.15.11-1.67.33c-.52.22-.98.53-1.36.92-.39.39-.69.84-.92,1.36-.22.52-.33,1.08-.33,1.67ZM313.73,32.41h2.01c.27,0,.53.03.78.09s.48.16.68.29c.2.13.36.31.48.51.12.21.18.47.18.78,0,.42-.12.76-.36,1.02-.24.26-.56.44-.96.53l1.54,2.5h-1.25l-1.34-2.39h-.74v2.39h-1.03v-5.72h0ZM315.58,34.91c.3,0,.58-.06.85-.17.27-.11.4-.34.4-.68,0-.31-.12-.52-.37-.63-.25-.1-.5-.16-.77-.16h-.94v1.63h.83Z"/>
      <path class="st4" d="M110.75,34.18c-.89-1.15-2.14-2.12-3.76-2.9s-3.25-1.17-4.9-1.17c-.98,0-1.95.12-2.93.37-.98.24-1.87.62-2.66,1.13-.8.51-1.46,1.18-1.97,2s-.77,1.81-.77,2.96c0,1.07.22,1.98.67,2.73.44.76,1.05,1.4,1.83,1.93s1.72,1,2.83,1.4,2.33.8,3.66,1.2c1.51.49,3.07,1.04,4.7,1.67,1.62.62,3.11,1.44,4.46,2.46s2.46,2.31,3.33,3.86c.87,1.56,1.3,3.49,1.3,5.8,0,2.53-.47,4.74-1.4,6.63s-2.18,3.45-3.73,4.7c-1.56,1.24-3.38,2.18-5.46,2.8-2.09.62-4.29.93-6.59.93-3.06,0-6.06-.57-8.99-1.7s-5.33-2.81-7.19-5.03l5.99-5.6c1.15,1.6,2.7,2.86,4.63,3.8,1.93.93,3.83,1.4,5.7,1.4.98,0,1.98-.12,3-.37,1.02-.24,1.94-.65,2.76-1.23.82-.58,1.49-1.3,2-2.17.51-.87.77-1.94.77-3.23s-.29-2.28-.87-3.1-1.36-1.53-2.33-2.13c-.98-.6-2.13-1.12-3.46-1.57-1.33-.44-2.73-.91-4.2-1.4-1.42-.44-2.84-.98-4.26-1.6-1.42-.62-2.7-1.44-3.83-2.46-1.13-1.02-2.05-2.28-2.76-3.76-.71-1.49-1.07-3.34-1.07-5.56,0-2.4.5-4.46,1.5-6.19,1-1.73,2.31-3.16,3.93-4.3,1.62-1.13,3.46-1.98,5.53-2.53,2.07-.55,4.16-.83,6.29-.83,2.4,0,4.83.42,7.29,1.27,2.46.84,4.61,2.11,6.43,3.8l-5.46,5.99h0Z"/>
      <path class="st4" d="M140.66,38.57c2.09,0,3.87.37,5.36,1.1s2.71,1.7,3.66,2.9,1.65,2.58,2.1,4.13c.44,1.56.67,3.15.67,4.8v19.98h-7.99v-17.59c0-.93-.07-1.9-.2-2.9-.13-1-.41-1.91-.83-2.73s-1.02-1.5-1.8-2.03-1.81-.8-3.1-.8-2.4.24-3.33.73c-.93.49-1.71,1.14-2.33,1.97-.62.82-1.09,1.74-1.4,2.76-.31,1.02-.47,2.07-.47,3.13v17.45h-7.99V21.12h7.99v22.85h.13c.31-.67.77-1.32,1.37-1.97.6-.64,1.3-1.22,2.1-1.73s1.71-.92,2.73-1.23c1.02-.31,2.13-.47,3.33-.47Z"/>
      <path class="st4" d="M157.95,39.51h7.66v5.33h.13c.89-1.87,2.13-3.37,3.73-4.53,1.6-1.15,3.46-1.73,5.6-1.73.31,0,.64,0,1,.03.35.02.67.08.93.17v7.33c-.53-.13-.99-.22-1.37-.27-.38-.04-.74-.07-1.1-.07-1.82,0-3.29.33-4.4,1s-1.98,1.47-2.6,2.4c-.62.93-1.04,1.89-1.27,2.86-.22.98-.33,1.75-.33,2.33v17.12h-7.99v-31.97h.01Z"/>
      <path class="st4" d="M210.18,55.89v1.07c0,.36-.02.71-.07,1.07h-24.31c.09,1.16.39,2.21.9,3.16.51.96,1.19,1.78,2.03,2.46.84.69,1.8,1.23,2.86,1.63,1.07.4,2.18.6,3.33.6,2,0,3.69-.37,5.06-1.1,1.38-.73,2.51-1.74,3.4-3.03l5.33,4.26c-3.15,4.26-7.73,6.39-13.72,6.39-2.49,0-4.77-.39-6.86-1.17s-3.9-1.88-5.43-3.3c-1.53-1.42-2.73-3.16-3.6-5.23-.87-2.07-1.3-4.41-1.3-7.03s.43-4.92,1.3-7.03c.87-2.11,2.05-3.91,3.56-5.4s3.3-2.64,5.36-3.46c2.07-.82,4.3-1.23,6.69-1.23,2.22,0,4.27.37,6.16,1.1s3.52,1.82,4.9,3.26c1.38,1.44,2.45,3.24,3.23,5.4.78,2.15,1.17,4.67,1.17,7.56v.02ZM202.19,52.29c0-1.02-.14-2-.43-2.93s-.74-1.75-1.37-2.46c-.62-.71-1.41-1.28-2.36-1.7-.96-.42-2.08-.63-3.36-.63-2.4,0-4.43.72-6.1,2.16-1.67,1.44-2.59,3.3-2.76,5.56h16.39-.01Z"/>
      <path class="st4" d="M247.84,71.48h-7.59v-4.8h-.13c-1.11,1.87-2.65,3.29-4.63,4.26-1.98.98-4.1,1.47-6.36,1.47-2.44,0-4.63-.46-6.56-1.37s-3.57-2.13-4.93-3.66c-1.36-1.53-2.4-3.33-3.13-5.4-.73-2.07-1.1-4.27-1.1-6.63s.38-4.55,1.13-6.59,1.82-3.82,3.2-5.33c1.38-1.51,3.02-2.7,4.93-3.56,1.91-.87,4-1.3,6.26-1.3,1.47,0,2.77.17,3.93.5,1.15.33,2.16.74,3.03,1.23.87.49,1.61,1.02,2.23,1.6.62.58,1.13,1.13,1.53,1.67h.2v-22.45h7.99v50.36h0ZM221.53,55.36c0,1.24.19,2.49.57,3.73.38,1.24.94,2.35,1.7,3.33.75.98,1.71,1.78,2.86,2.4s2.51.93,4.06.93c1.47,0,2.77-.3,3.93-.9,1.15-.6,2.14-1.39,2.96-2.36.82-.98,1.44-2.08,1.87-3.3.42-1.22.63-2.45.63-3.7s-.21-2.49-.63-3.73c-.42-1.24-1.04-2.35-1.87-3.33-.82-.98-1.81-1.78-2.96-2.4-1.16-.62-2.46-.93-3.93-.93-1.56,0-2.91.3-4.06.9-1.16.6-2.11,1.39-2.86,2.36-.76.98-1.32,2.08-1.7,3.3-.38,1.22-.57,2.45-.57,3.7Z"/>
      <path class="st4" d="M268.84,58.49h-15.99v-6.79h15.99v6.79Z"/>
      <path class="st4" d="M272.73,28.65c0-1.29.48-2.41,1.43-3.36.95-.95,2.16-1.43,3.63-1.43s2.7.46,3.7,1.37c1,.91,1.5,2.05,1.5,3.43s-.5,2.52-1.5,3.43-2.23,1.37-3.7,1.37-2.68-.48-3.63-1.43c-.96-.95-1.43-2.08-1.43-3.36v-.02ZM273.86,39.51h7.99v31.97h-7.99s0-31.97,0-31.97Z"/>
      <path class="st4" d="M285.31,45.9v-6.39h5.6v-9.26h7.86v9.26h7.99v6.39h-7.99v14.85c0,1.42.26,2.6.77,3.53.51.93,1.65,1.4,3.43,1.4.53,0,1.11-.06,1.73-.17.62-.11,1.18-.28,1.67-.5l.27,6.26c-.71.27-1.56.48-2.53.63-.98.16-1.91.23-2.8.23-2.13,0-3.86-.3-5.2-.9-1.33-.6-2.39-1.42-3.16-2.46-.78-1.04-1.31-2.24-1.6-3.6-.29-1.35-.43-2.81-.43-4.36v-14.92h-5.61Z"/>
    </g>
  </g>
  <g>
    <g class="st1">
      <g class="st1">
        <path class="st4" d="M98.44,111.76h-2.09l-10.51-14.97v14.97h-2.01v-18.48h2.06l10.51,15.02v-15.02h2.03v18.48Z"/>
        <path class="st4" d="M102.06,105.29c0-.93.16-1.81.49-2.64.33-.83.78-1.54,1.36-2.15.58-.61,1.27-1.09,2.06-1.45.79-.36,1.65-.54,2.59-.54s1.8.18,2.6.54c.8.36,1.49.84,2.07,1.45.58.61,1.04,1.32,1.37,2.15.33.83.5,1.71.5,2.64s-.17,1.81-.5,2.63c-.33.82-.79,1.53-1.37,2.14-.58.61-1.27,1.09-2.07,1.45-.8.36-1.67.54-2.6.54s-1.79-.18-2.59-.54-1.48-.84-2.06-1.45c-.58-.61-1.03-1.32-1.36-2.14s-.49-1.69-.49-2.63ZM104.06,105.29c0,1.39.42,2.56,1.25,3.51s1.91,1.43,3.23,1.43,2.4-.48,3.25-1.43c.84-.95,1.27-2.12,1.27-3.51s-.42-2.56-1.27-3.51c-.85-.95-1.93-1.43-3.25-1.43s-2.4.48-3.23,1.43c-.84.95-1.25,2.12-1.25,3.51Z"/>
        <path class="st4" d="M119.24,98.82l2.98,10.8,2.98-10.8h2.64l2.98,10.8,2.98-10.8h2.14l-3.85,12.94h-2.43l-3.14-10.69-3.12,10.69h-2.46l-3.85-12.94h2.14Z"/>
        <path class="st4" d="M159.29,105.29c0,.93-.15,1.81-.44,2.63-.29.82-.7,1.53-1.23,2.14-.53.61-1.16,1.09-1.9,1.45s-1.56.54-2.46.54-1.71-.18-2.44-.53c-.73-.35-1.37-.84-1.91-1.48v6.84h-1.95v-18.06h1.9v1.77c.55-.65,1.19-1.16,1.94-1.53.75-.37,1.57-.55,2.47-.55s1.72.18,2.46.54c.74.36,1.37.84,1.9,1.45.53.61.94,1.32,1.23,2.15.29.83.44,1.71.44,2.64ZM157.29,105.29c0-.69-.1-1.33-.29-1.94-.19-.61-.47-1.13-.82-1.57-.35-.44-.79-.79-1.32-1.04-.53-.25-1.12-.38-1.77-.38s-1.24.13-1.77.38c-.53.26-.97.6-1.33,1.04-.36.44-.64.96-.83,1.57-.19.61-.29,1.25-.29,1.94s.1,1.33.29,1.94c.19.61.47,1.13.83,1.57.36.44.81.79,1.33,1.04.53.26,1.12.38,1.77.38s1.24-.13,1.77-.38c.53-.25.97-.6,1.32-1.04.35-.44.62-.96.82-1.57.19-.61.29-1.25.29-1.94Z"/>
        <path class="st4" d="M172.18,111.76h-1.9v-1.43c-.53.58-1.13,1.01-1.82,1.29s-1.41.42-2.17.42c-1.21,0-2.25-.34-3.1-1.02-.85-.68-1.28-1.65-1.28-2.92s.44-2.24,1.31-2.92c.87-.68,2-1.02,3.39-1.02.95,0,1.79.11,2.52.33.73.22,1.1.32,1.1.3v-1.43c0-1.02-.31-1.79-.94-2.3-.62-.51-1.44-.77-2.44-.77-.49,0-.93.08-1.32.24s-.71.33-.98.53c-.26.19-.54.46-.82.79l-1.35-1.24c.39-.44.77-.8,1.15-1.07.38-.27.85-.52,1.41-.74.56-.22,1.21-.33,1.93-.33,1.58,0,2.86.41,3.84,1.21.98.81,1.47,2.08,1.47,3.8v8.24ZM166.42,110.25c.74,0,1.43-.18,2.09-.53.65-.35,1.22-.85,1.72-1.5v-1.64s-.36-.08-1.07-.3c-.71-.22-1.53-.33-2.44-.33s-1.66.21-2.14.63c-.48.42-.71.93-.71,1.53,0,.69.24,1.21.71,1.58.48.37,1.09.55,1.85.55Z"/>
        <path class="st4" d="M182.95,98.67v1.88c-.18-.02-.33-.03-.45-.03-1.51,0-2.61.43-3.29,1.29-.68.86-1.02,2.34-1.02,4.44v5.52h-1.95v-12.94h1.9v1.72c.58-.72,1.2-1.22,1.86-1.49.66-.27,1.45-.41,2.36-.41h.22c.1,0,.21,0,.36.03Z"/>
        <path class="st4" d="M190.58,111.81c-1.21,0-2.14-.29-2.79-.86-.64-.57-.96-1.57-.96-3v-7.34h-2.11v-1.79h2.11v-3.62h1.95v3.62h3.01v1.79h-3.01v7.05c0,.79.13,1.38.38,1.77.25.39.79.58,1.6.58.14,0,.48,0,1.03-.03v1.77c-.48.04-.88.05-1.21.05Z"/>
        <path class="st4" d="M202.77,105.29c0-.93.16-1.81.49-2.64.33-.83.78-1.54,1.36-2.15.58-.61,1.27-1.09,2.06-1.45.79-.36,1.65-.54,2.59-.54s1.8.18,2.6.54c.8.36,1.49.84,2.07,1.45.58.61,1.04,1.32,1.37,2.15.33.83.5,1.71.5,2.64s-.17,1.81-.5,2.63-.79,1.53-1.37,2.14c-.58.61-1.27,1.09-2.07,1.45s-1.67.54-2.6.54-1.79-.18-2.59-.54-1.48-.84-2.06-1.45c-.58-.61-1.03-1.32-1.36-2.14-.33-.82-.49-1.69-.49-2.63ZM204.78,105.29c0,1.39.42,2.56,1.25,3.51s1.91,1.43,3.23,1.43,2.4-.48,3.25-1.43c.84-.95,1.27-2.12,1.27-3.51s-.42-2.56-1.27-3.51c-.85-.95-1.93-1.43-3.25-1.43s-2.4.48-3.23,1.43c-.84.95-1.25,2.12-1.25,3.51Z"/>
        <path class="st4" d="M224.68,92.96c.23,0,.47,0,.71.03v1.77h-.69c-.99,0-1.67.23-2.05.7-.38.47-.57,1.17-.57,2.1v1.27h3.01v1.79h-3.01v11.14h-1.95v-11.14h-2.11v-1.79h2.11v-1.27c0-1.64.39-2.81,1.17-3.52s1.9-1.07,3.37-1.07Z"/>
      </g>
    </g>
    <g>
      <g>
        <polygon class="st4" points="237.22 88.29 243.91 116.5 306.39 116.5 299.7 88.29 237.22 88.29"/>
        <polygon class="st5" points="247.86 95.76 253.34 95.76 255.13 104.04 255.18 104.04 257.7 95.76 264.01 95.76 266.49 104.04 266.55 104.04 268.31 95.76 273.39 95.76 270.22 109.03 263.08 109.03 260.68 100.96 260.62 100.96 258.2 109.03 251.01 109.03 247.86 95.76"/>
        <polygon class="st2" points="273.39 95.76 280.57 95.76 282.99 103.83 283.04 103.83 285.45 95.76 292.58 95.76 295.77 109.03 290.68 109.03 288.91 100.74 288.86 100.74 286.38 109.03 280.06 109.03 277.55 100.74 277.49 100.74 275.7 109.03 270.22 109.03 273.39 95.76"/>
      </g>
      <g class="st6">
        <g>
          <path class="st3" d="M296.91,107.48c-.42,0-.76.35-.76.78s.34.78.76.78.76-.35.76-.78-.33-.78-.76-.78M296.92,108.9c-.36,0-.63-.28-.63-.65s.27-.65.63-.65.61.28.61.65-.26.65-.61.65"/>
          <path class="st3" d="M297.05,108.31c.1-.03.15-.1.15-.22,0-.15-.09-.23-.27-.23h-.25v.73h.12v-.27h.11l.19.27h.16l-.21-.29h0ZM297.08,108.1c0,.08-.05.12-.14.12h-.14v-.23h.14c.11,0,.14.06.14.11"/>
        </g>
      </g>
    </g>
  </g>
</svg>