<svg id="Layer_1" data-name="Layer 1" xmlns="http://www.w3.org/2000/svg" viewBox="0 0 363.38 125.91"><defs><style>.cls-1{fill:#fff;}</style></defs><polygon class="cls-1" points="22.96 5.32 22.96 8.81 65.45 34.91 68.28 33.16 22.96 5.32"/><polygon class="cls-1" points="0 0 0 3.49 63.12 42.26 65.96 40.52 0 0"/><polygon class="cls-1" points="22.96 22.98 22.96 26.47 65.45 52.56 68.28 50.82 22.96 22.98"/><polygon class="cls-1" points="0 17.66 0 21.14 63.12 59.92 65.96 58.17 0 17.66"/><polygon class="cls-1" points="22.96 40.23 22.96 43.71 65.45 69.81 68.28 68.07 22.96 40.23"/><polygon class="cls-1" points="0 34.91 0 38.39 63.12 77.16 65.96 75.42 0 34.91"/><path class="cls-1" d="M343.64,39a5.34,5.34,0,0,1,.44-2.18,5.63,5.63,0,0,1,3-3,5.53,5.53,0,0,1,4.37,0,5.52,5.52,0,0,1,1.79,1.2,5.43,5.43,0,0,1,1.22,1.78,5.62,5.62,0,0,1,0,4.36,5.6,5.6,0,0,1-1.22,1.77,5.47,5.47,0,0,1-1.79,1.18,5.73,5.73,0,0,1-6.17-1.18,5.74,5.74,0,0,1-1.21-1.77A5.31,5.31,0,0,1,343.64,39Zm.89,0a4.5,4.5,0,0,0,.37,1.83,4.76,4.76,0,0,0,2.52,2.55,4.6,4.6,0,0,0,1.85.37,4.64,4.64,0,0,0,1.86-.37,4.77,4.77,0,0,0,1.51-1,5,5,0,0,0,1-1.52A4.5,4.5,0,0,0,354,39a4.6,4.6,0,0,0-.37-1.85,4.94,4.94,0,0,0-1-1.51,4.71,4.71,0,0,0-1.51-1,4.64,4.64,0,0,0-1.86-.37A4.72,4.72,0,0,0,344.53,39Zm2.54-3.19h2.23a4.12,4.12,0,0,1,.86.1,2.6,2.6,0,0,1,.76.32,1.7,1.7,0,0,1,.53.57,1.75,1.75,0,0,1,.2.87,1.55,1.55,0,0,1-.4,1.12,2,2,0,0,1-1.06.59l1.7,2.76h-1.38L349,39.49h-.82v2.64h-1.14Zm2.06,2.77a2.41,2.41,0,0,0,.93-.18.75.75,0,0,0,.45-.76.69.69,0,0,0-.41-.69,2.22,2.22,0,0,0-.85-.17h-1v1.8Z" transform="translate(-3.38 -2.3)"/><path class="cls-1" d="M122.38,37.76a11.29,11.29,0,0,0-4.17-3.2,12.42,12.42,0,0,0-5.42-1.29,13.31,13.31,0,0,0-3.24.4,9.74,9.74,0,0,0-3,1.26,6.87,6.87,0,0,0-2.18,2.21,6.13,6.13,0,0,0-.84,3.28,5.85,5.85,0,0,0,.73,3,6.66,6.66,0,0,0,2,2.14,13.72,13.72,0,0,0,3.14,1.55c1.22.44,2.58.88,4,1.33q2.5.81,5.2,1.84A20.31,20.31,0,0,1,123.67,53a13.55,13.55,0,0,1,3.69,4.28,13,13,0,0,1,1.43,6.41,16.43,16.43,0,0,1-1.54,7.34,15.27,15.27,0,0,1-4.13,5.2,17.58,17.58,0,0,1-6.05,3.09,25.36,25.36,0,0,1-7.3,1,27.44,27.44,0,0,1-10-1.88,19.29,19.29,0,0,1-8-5.57l6.64-6.2A13.4,13.4,0,0,0,103.61,71a13.63,13.63,0,0,0,9.63,1.14,8.82,8.82,0,0,0,3.06-1.36,7.69,7.69,0,0,0,2.21-2.4,7,7,0,0,0,.85-3.58,5.83,5.83,0,0,0-1-3.43A8.81,8.81,0,0,0,115.82,59,18.53,18.53,0,0,0,112,57.23l-4.64-1.55a44.43,44.43,0,0,1-4.72-1.77,15.29,15.29,0,0,1-4.24-2.72A13.07,13.07,0,0,1,95.32,47a14.22,14.22,0,0,1-1.18-6.16A13.48,13.48,0,0,1,95.8,34a14.56,14.56,0,0,1,4.35-4.75,19,19,0,0,1,6.12-2.8,26.48,26.48,0,0,1,7-.93,24.93,24.93,0,0,1,8.07,1.4,19.84,19.84,0,0,1,7.12,4.21Z" transform="translate(-3.38 -2.3)"/><path class="cls-1" d="M155.49,42.63a13.29,13.29,0,0,1,5.93,1.22,11.68,11.68,0,0,1,4.06,3.21,12.83,12.83,0,0,1,2.32,4.57,19.29,19.29,0,0,1,.74,5.31V79.06h-8.85V59.59a24,24,0,0,0-.22-3.21,9.5,9.5,0,0,0-.92-3,6.06,6.06,0,0,0-2-2.25,6,6,0,0,0-3.43-.88,7.85,7.85,0,0,0-3.69.81,7.64,7.64,0,0,0-2.58,2.17,9.81,9.81,0,0,0-1.55,3.06,12,12,0,0,0-.51,3.47V79.06H136V23.31h8.85V48.6h.14a8.59,8.59,0,0,1,1.52-2.17,11.92,11.92,0,0,1,2.32-1.92,12.1,12.1,0,0,1,3-1.36A12.42,12.42,0,0,1,155.49,42.63Z" transform="translate(-3.38 -2.3)"/><path class="cls-1" d="M174.63,43.66h8.48v5.9h.14a13,13,0,0,1,4.13-5,10.31,10.31,0,0,1,6.2-1.92c.34,0,.71,0,1.1,0a3.88,3.88,0,0,1,1,.18V51a14,14,0,0,0-1.52-.29,10.1,10.1,0,0,0-1.21-.08,9.36,9.36,0,0,0-4.87,1.11,8.83,8.83,0,0,0-2.88,2.66,9.75,9.75,0,0,0-1.4,3.17,12.73,12.73,0,0,0-.37,2.58v19h-8.84Z" transform="translate(-3.38 -2.3)"/><path class="cls-1" d="M232.45,61.8V63a9.23,9.23,0,0,1-.08,1.18H205.46a8.76,8.76,0,0,0,1,3.51,8.89,8.89,0,0,0,2.24,2.72,11,11,0,0,0,3.17,1.81,10.48,10.48,0,0,0,3.69.66,11.87,11.87,0,0,0,5.61-1.21,10.55,10.55,0,0,0,3.76-3.36l5.9,4.72q-5.25,7.08-15.2,7.08A21.59,21.59,0,0,1,208,78.8a18,18,0,0,1-6-3.65,16.35,16.35,0,0,1-4-5.79,19.91,19.91,0,0,1-1.44-7.78,20.3,20.3,0,0,1,1.44-7.78,17.81,17.81,0,0,1,3.94-6A17.56,17.56,0,0,1,207.93,44a19.88,19.88,0,0,1,7.41-1.37,18.7,18.7,0,0,1,6.82,1.22,14.7,14.7,0,0,1,5.42,3.61,16.86,16.86,0,0,1,3.58,6A24.7,24.7,0,0,1,232.45,61.8Zm-8.85-4a10.86,10.86,0,0,0-.48-3.24A7.22,7.22,0,0,0,219,50a9.11,9.11,0,0,0-3.72-.7,10,10,0,0,0-6.75,2.39,8.77,8.77,0,0,0-3.06,6.16Z" transform="translate(-3.38 -2.3)"/><path class="cls-1" d="M274.13,79.06h-8.4V73.75h-.15a12.1,12.1,0,0,1-5.12,4.72,15.72,15.72,0,0,1-7,1.62,16.5,16.5,0,0,1-12.72-5.57,17.84,17.84,0,0,1-3.46-6A21.83,21.83,0,0,1,236,61.21a21,21,0,0,1,1.25-7.3A18.06,18.06,0,0,1,240.8,48a16.56,16.56,0,0,1,12.39-5.38,16.06,16.06,0,0,1,4.35.55,15.79,15.79,0,0,1,3.36,1.37,12.93,12.93,0,0,1,2.47,1.77,13.82,13.82,0,0,1,1.69,1.84h.23V23.31h8.84ZM245,61.21a14.36,14.36,0,0,0,.62,4.13A11.49,11.49,0,0,0,247.51,69a9.87,9.87,0,0,0,3.17,2.65,9.35,9.35,0,0,0,4.5,1,9.21,9.21,0,0,0,4.35-1,10.47,10.47,0,0,0,3.28-2.62,11.37,11.37,0,0,0,2.07-3.65,12.34,12.34,0,0,0,.7-4.09,12.75,12.75,0,0,0-.7-4.13,11.56,11.56,0,0,0-2.07-3.69,11.16,11.16,0,0,0-3.28-2.65,9,9,0,0,0-4.35-1,9.28,9.28,0,0,0-7.67,3.61,11.6,11.6,0,0,0-1.88,3.65A14,14,0,0,0,245,61.21Z" transform="translate(-3.38 -2.3)"/><path class="cls-1" d="M297.39,64.68h-17.7V57.16h17.7Z" transform="translate(-3.38 -2.3)"/><path class="cls-1" d="M301.69,31.64a5.09,5.09,0,0,1,1.58-3.72,5.45,5.45,0,0,1,4-1.59,5.84,5.84,0,0,1,4.09,1.52,5.17,5.17,0,0,1,0,7.59A5.83,5.83,0,0,1,307.29,37a5.44,5.44,0,0,1-4-1.58A5.09,5.09,0,0,1,301.69,31.64Zm1.25,12h8.85v35.4h-8.85Z" transform="translate(-3.38 -2.3)"/><path class="cls-1" d="M315.62,50.74V43.66h6.2V33.41h8.7V43.66h8.85v7.08h-8.85V67.19a8.1,8.1,0,0,0,.84,3.9c.57,1,1.84,1.55,3.8,1.55a11.25,11.25,0,0,0,1.92-.18,7.8,7.8,0,0,0,1.84-.55l.3,6.93a15.65,15.65,0,0,1-2.8.7,20.15,20.15,0,0,1-3.1.26,14.16,14.16,0,0,1-5.75-1,8.64,8.64,0,0,1-3.51-2.73,10.07,10.07,0,0,1-1.77-4,23.15,23.15,0,0,1-.47-4.83V50.74Z" transform="translate(-3.38 -2.3)"/><path class="cls-1" d="M91.31,115.1V103.56h1.88v11.33c0,3,1.27,5.88,5,5.88s5-2.91,5-5.88V103.56h1.87V115.1c0,3.07-1.37,7.33-6.89,7.33S91.31,118.17,91.31,115.1Z" transform="translate(-3.38 -2.3)"/><path class="cls-1" d="M111.36,109.8c0,.65.1,1.56.1,2.08h.06a4.72,4.72,0,0,1,4.16-2.39c3.09,0,4.62,2,4.62,5V122h-1.76v-6.74c0-2.55-.76-4.26-3.31-4.26-1.87,0-3.69,1.51-3.69,4.76V122h-1.77v-9.49c0-.65,0-1.85-.1-2.68Z" transform="translate(-3.38 -2.3)"/><path class="cls-1" d="M135.93,116.35H125.84a4.44,4.44,0,0,0,4.45,4.42,4.6,4.6,0,0,0,3.9-2.11l1.32,1a6.34,6.34,0,0,1-5.22,2.58,6.4,6.4,0,0,1-.16-12.79c3.82,0,5.82,2.7,5.82,6C136,115.75,136,116,135.93,116.35Zm-1.77-1.4a3.84,3.84,0,0,0-4-4,4.31,4.31,0,0,0-4.26,4Z" transform="translate(-3.38 -2.3)"/><path class="cls-1" d="M155.27,106.52a4.4,4.4,0,0,0-3.79-1.84c-1.82,0-3.93,1.09-3.93,3.45s1.95,2.94,4,3.62c2.6.86,5.46,1.69,5.46,5.38s-3.1,5.3-6,5.3a7.11,7.11,0,0,1-5.8-2.73l1.61-1.19a4.89,4.89,0,0,0,4.21,2.31c1.9,0,4.09-1.19,4.09-3.56,0-2.57-2.16-3.22-4.5-4s-4.94-1.82-4.94-5.15c0-3.56,3.17-5.07,5.88-5.07a6.42,6.42,0,0,1,5.2,2.24Z" transform="translate(-3.38 -2.3)"/><path class="cls-1" d="M166.51,122.28a6.4,6.4,0,1,1,6.5-6.4A6.24,6.24,0,0,1,166.51,122.28Zm0-11.31a4.91,4.91,0,1,0,4.62,4.91A4.59,4.59,0,0,0,166.51,111Z" transform="translate(-3.38 -2.3)"/><path class="cls-1" d="M178.62,122h-1.77V102.31h1.77Z" transform="translate(-3.38 -2.3)"/><path class="cls-1" d="M192.19,122c-.05-.65-.1-1.56-.1-2.08H192a4.76,4.76,0,0,1-4.16,2.39c-3.1,0-4.63-2-4.63-5V109.8H185v6.73c0,2.55.75,4.27,3.3,4.27,1.87,0,3.69-1.51,3.69-4.76V109.8h1.77v9.49c0,.65,0,1.84.1,2.68Z" transform="translate(-3.38 -2.3)"/><path class="cls-1" d="M203.94,111.28h-3.43v7.1c0,1.82.76,2.23,1.82,2.23a3.55,3.55,0,0,0,1.54-.39l.07,1.54a5.77,5.77,0,0,1-2.08.36,2.9,2.9,0,0,1-3.12-3.25v-7.59h-2.52V109.8h2.52v-3.43h1.77v3.43h3.43Z" transform="translate(-3.38 -2.3)"/><path class="cls-1" d="M207.61,106.37a1.25,1.25,0,1,1,1.25-1.25A1.27,1.27,0,0,1,207.61,106.37Zm.88,15.6h-1.76V109.8h1.76Z" transform="translate(-3.38 -2.3)"/><path class="cls-1" d="M218.79,122.28a6.4,6.4,0,1,1,6.5-6.4A6.23,6.23,0,0,1,218.79,122.28Zm0-11.31a4.91,4.91,0,1,0,4.63,4.91A4.59,4.59,0,0,0,218.79,111Z" transform="translate(-3.38 -2.3)"/><path class="cls-1" d="M230.67,109.8c.05.65.11,1.56.11,2.08h.05a4.72,4.72,0,0,1,4.16-2.39c3.09,0,4.63,2,4.63,5V122h-1.77v-6.74c0-2.55-.76-4.26-3.3-4.26-1.88,0-3.7,1.51-3.7,4.76V122h-1.76v-9.49c0-.65,0-1.85-.11-2.68Z" transform="translate(-3.38 -2.3)"/><path class="cls-1" d="M259.71,106.52a4.4,4.4,0,0,0-3.79-1.84c-1.82,0-3.93,1.09-3.93,3.45s1.95,2.94,4,3.62c2.6.86,5.46,1.69,5.46,5.38s-3.1,5.3-6,5.3a7.11,7.11,0,0,1-5.8-2.73l1.61-1.19a4.9,4.9,0,0,0,4.22,2.31c1.89,0,4.08-1.19,4.08-3.56,0-2.57-2.16-3.22-4.5-4s-4.94-1.82-4.94-5.15c0-3.56,3.17-5.07,5.88-5.07a6.42,6.42,0,0,1,5.2,2.24Z" transform="translate(-3.38 -2.3)"/><path class="cls-1" d="M270.69,111.28h-3.44v7.1c0,1.82.76,2.23,1.82,2.23a3.55,3.55,0,0,0,1.54-.39l.08,1.54a5.85,5.85,0,0,1-2.08.36,2.9,2.9,0,0,1-3.12-3.25v-7.59H263V109.8h2.53v-3.43h1.76v3.43h3.44Z" transform="translate(-3.38 -2.3)"/><path class="cls-1" d="M284.49,116.35H274.4a4.45,4.45,0,0,0,4.45,4.42,4.6,4.6,0,0,0,3.9-2.11l1.33,1a6.36,6.36,0,0,1-5.23,2.58,6.4,6.4,0,0,1-.16-12.79c3.83,0,5.83,2.7,5.83,6C284.52,115.75,284.52,116,284.49,116.35Zm-1.77-1.4a3.83,3.83,0,0,0-4-4,4.31,4.31,0,0,0-4.26,4Z" transform="translate(-3.38 -2.3)"/><path class="cls-1" d="M288.21,109.8h1.69c.05.65.1,1.56.1,2.08h.05a4.33,4.33,0,0,1,3.9-2.39,3.89,3.89,0,0,1,1.17.13l-.23,1.66a4.63,4.63,0,0,0-1.25-.16c-1.87,0-3.56,1.36-3.56,4.61V122h-1.77v-9.49C288.31,111.83,288.29,110.63,288.21,109.8Z" transform="translate(-3.38 -2.3)"/><path class="cls-1" d="M298.58,106.37a1.25,1.25,0,1,1,1.25-1.25A1.27,1.27,0,0,1,298.58,106.37Zm.89,15.6H297.7V109.8h1.77Z" transform="translate(-3.38 -2.3)"/><path class="cls-1" d="M312.94,112.58a3.71,3.71,0,0,0-3.12-1.61,4.91,4.91,0,0,0,0,9.8,3.92,3.92,0,0,0,3.3-1.59l1.33,1a5.65,5.65,0,0,1-4.63,2.11,6.4,6.4,0,1,1,0-12.79,5.72,5.72,0,0,1,4.52,2.1Z" transform="translate(-3.38 -2.3)"/><path class="cls-1" d="M321.36,120.07h.05l3.77-10.27h1.93l-6.06,15.31c-.73,1.87-1.72,3.1-3.83,3.1a8.47,8.47,0,0,1-1.58-.16l.18-1.61a4.12,4.12,0,0,0,1.3.21c1.2,0,1.82-.78,2.34-2.16l1-2.55-5.2-12.14h2Z" transform="translate(-3.38 -2.3)"/><path class="cls-1" d="M338.62,112.58A3.68,3.68,0,0,0,335.5,111a4.91,4.91,0,0,0,0,9.8,3.92,3.92,0,0,0,3.3-1.59l1.33,1a5.67,5.67,0,0,1-4.63,2.11,6.4,6.4,0,1,1,0-12.79,5.72,5.72,0,0,1,4.52,2.1Z" transform="translate(-3.38 -2.3)"/><path class="cls-1" d="M344.68,122h-1.77V102.31h1.77Z" transform="translate(-3.38 -2.3)"/><path class="cls-1" d="M360.46,116.35H350.37a4.45,4.45,0,0,0,4.45,4.42,4.6,4.6,0,0,0,3.9-2.11l1.33,1a6.36,6.36,0,0,1-5.23,2.58,6.4,6.4,0,0,1-.16-12.79c3.83,0,5.83,2.7,5.83,6C360.49,115.75,360.49,116,360.46,116.35Zm-1.77-1.4a3.83,3.83,0,0,0-4-4,4.31,4.31,0,0,0-4.26,4Z" transform="translate(-3.38 -2.3)"/><path class="cls-1" d="M363.11,100.94a3.62,3.62,0,1,1-3.65,3.63A3.64,3.64,0,0,1,363.11,100.94Zm0,6.71a3.08,3.08,0,1,0-3.08-3.08A3.09,3.09,0,0,0,363.11,107.65Zm-1.43-5.14h1.44c.77,0,1.52.32,1.52,1.2a1.09,1.09,0,0,1-.94,1.11l1.1,1.79h-.89l-1-1.72h-.53v1.72h-.74ZM363,104.3c.42,0,.9-.11.9-.61s-.44-.56-.82-.56h-.67v1.17Z" transform="translate(-3.38 -2.3)"/></svg>