<?xml version="1.0" encoding="utf-8"?>
<!-- Generator: Adobe Illustrator 28.1.0, SVG Export Plug-In . SVG Version: 6.00 Build 0)  -->
<svg version="1.1" id="Layer_1" xmlns="http://www.w3.org/2000/svg" xmlns:xlink="http://www.w3.org/1999/xlink" x="0px" y="0px"
	 viewBox="0 0 360 132.1" style="enable-background:new 0 0 360 132.1;" xml:space="preserve">
<style type="text/css">
	.st0{fill:#006CB4;}
	.st1{fill:#58595B;}
</style>
<g>
	<g>
		<g>
			<g>
				<polygon class="st0" points="22.5,6.3 22.5,9.1 58,30.9 60.4,29.5 				"/>
				<polygon class="st0" points="3.4,1.8 3.4,4.7 56.1,37.1 58.4,35.7 				"/>
			</g>
			<g>
				<polygon class="st0" points="22.5,21 22.5,23.9 58,45.7 60.4,44.3 				"/>
				<polygon class="st0" points="3.4,16.6 3.4,19.5 56.1,51.9 58.4,50.4 				"/>
			</g>
			<polygon class="st0" points="22.5,35.4 22.5,38.4 58,60.2 60.4,58.7 			"/>
			<polygon class="st0" points="3.4,30.9 3.4,33.9 56.1,66.3 58.4,64.8 			"/>
		</g>
		<g>
			<path class="st0" d="M287.4,32.4c0-0.7,0.1-1.3,0.3-1.8c0.3-0.6,0.6-1.1,1-1.5c0.4-0.4,0.9-0.8,1.5-1c0.6-0.3,1.2-0.3,1.8-0.3
				c0.7,0,1.3,0.1,1.8,0.3s1.1,0.6,1.5,1c0.4,0.4,0.8,0.9,1,1.5c0.3,0.6,0.3,1.2,0.3,1.8c0,0.7-0.1,1.3-0.3,1.8s-0.6,1.1-1,1.5
				c-0.4,0.4-0.9,0.8-1.5,1c-0.6,0.3-1.2,0.3-1.8,0.3s-1.3-0.1-1.8-0.3c-0.6-0.3-1.1-0.6-1.5-1s-0.8-0.9-1-1.5
				C287.6,33.7,287.4,33.1,287.4,32.4z M288.2,32.4c0,0.5,0.1,1.1,0.3,1.5c0.2,0.5,0.5,0.9,0.8,1.3c0.3,0.3,0.8,0.7,1.3,0.8
				c0.5,0.2,1,0.3,1.6,0.3s1.1-0.1,1.6-0.3c0.5-0.3,0.9-0.5,1.3-0.8s0.7-0.8,0.8-1.3s0.3-1,0.3-1.5c0-0.6-0.1-1.1-0.3-1.6
				c-0.2-0.5-0.5-0.9-0.8-1.3s-0.8-0.7-1.3-0.8c-0.5-0.2-1-0.3-1.6-0.3c-0.6,0-1.1,0.1-1.6,0.3c-0.5,0.2-0.9,0.5-1.3,0.8
				c-0.3,0.3-0.7,0.8-0.8,1.3C288.4,31.4,288.2,31.9,288.2,32.4z M290.4,29.9h1.8c0.3,0,0.5,0,0.8,0.1c0.3,0.1,0.4,0.2,0.7,0.3
				c0.2,0.1,0.3,0.3,0.4,0.5c0.1,0.2,0.2,0.4,0.2,0.8c0,0.4-0.1,0.7-0.3,0.9c-0.3,0.3-0.5,0.4-0.9,0.5l1.4,2.3h-1.2l-1.3-2.2h-0.7
				v2.2h-0.9L290.4,29.9L290.4,29.9z M292,32.1c0.3,0,0.5-0.1,0.8-0.2c0.3-0.1,0.3-0.3,0.3-0.7c0-0.3-0.1-0.5-0.3-0.6
				c-0.3-0.1-0.5-0.2-0.8-0.2h-0.8V32L292,32.1L292,32.1z"/>
			<path class="st0" d="M102.8,31.4c-0.8-1.1-2-1.9-3.5-2.7c-1.5-0.8-3-1.1-4.5-1.1c-0.9,0-1.8,0.1-2.7,0.3
				c-0.9,0.3-1.8,0.6-2.4,1.1c-0.8,0.5-1.3,1.1-1.8,1.8c-0.5,0.8-0.7,1.7-0.7,2.8c0,1,0.2,1.8,0.6,2.5c0.4,0.7,1,1.3,1.7,1.8
				c0.8,0.5,1.6,0.9,2.6,1.3s2.2,0.8,3.4,1.1c1.4,0.4,2.8,1,4.3,1.5c1.5,0.6,2.8,1.3,4.1,2.3s2.3,2.2,3.1,3.6
				c0.8,1.4,1.2,3.3,1.2,5.3c0,2.3-0.4,4.3-1.3,6.1c-0.8,1.8-2,3.2-3.4,4.3c-1.4,1.2-3.1,2-5,2.6s-3.9,0.8-6.1,0.8
				c-2.8,0-5.6-0.5-8.3-1.6c-2.7-1.1-4.9-2.6-6.7-4.7l5.5-5.2c1.1,1.5,2.5,2.7,4.3,3.5c1.8,0.8,3.5,1.3,5.3,1.3
				c0.9,0,1.8-0.1,2.8-0.3c0.9-0.3,1.8-0.6,2.6-1.2c0.8-0.5,1.3-1.2,1.8-2c0.5-0.8,0.7-1.8,0.7-3c0-1.2-0.3-2.1-0.8-2.8
				c-0.5-0.8-1.3-1.4-2.2-2s-2-1-3.2-1.4c-1.3-0.4-2.5-0.8-3.8-1.3c-1.3-0.4-2.6-0.9-3.9-1.5c-1.3-0.6-2.5-1.3-3.5-2.3
				c-1.1-0.9-1.9-2.1-2.6-3.5c-0.7-1.3-1-3.1-1-5.2c0-2.3,0.5-4.1,1.4-5.8c0.9-1.6,2.2-2.9,3.7-4s3.2-1.8,5.1-2.3
				c1.9-0.5,3.8-0.8,5.8-0.8c2.3,0,4.4,0.4,6.8,1.2c2.3,0.8,4.3,1.9,5.9,3.5L102.8,31.4z"/>
			<path class="st0" d="M130.4,35.5c1.9,0,3.6,0.3,4.9,1c1.3,0.7,2.5,1.6,3.4,2.7s1.5,2.4,1.9,3.8c0.4,1.4,0.6,2.9,0.6,4.4v18.5
				h-7.3V49.6c0-0.8-0.1-1.8-0.2-2.7c-0.1-0.9-0.4-1.8-0.8-2.5c-0.4-0.8-0.9-1.4-1.7-1.8c-0.8-0.5-1.7-0.8-2.8-0.8s-2.3,0.3-3.1,0.7
				c-0.8,0.4-1.6,1.1-2.2,1.8c-0.6,0.8-1,1.6-1.3,2.6c-0.3,0.9-0.4,1.9-0.4,2.9V66h-7.3V19.4h7.3v21.1h0.1c0.3-0.6,0.7-1.3,1.3-1.8
				s1.2-1.2,1.9-1.6c0.8-0.5,1.6-0.8,2.5-1.2C128.2,35.6,129.3,35.5,130.4,35.5z"/>
			<path class="st0" d="M146.3,36.4h7.1v4.9h0.1c0.8-1.8,2-3.1,3.4-4.2c1.5-1.1,3.2-1.6,5.2-1.6c0.3,0,0.6,0,0.9,0s0.6,0.1,0.8,0.2
				v6.8c-0.5-0.1-0.9-0.2-1.3-0.3c-0.3,0-0.7-0.1-1-0.1c-1.7,0-3,0.3-4.1,0.9c-1,0.6-1.8,1.3-2.4,2.3c-0.6,0.8-1,1.8-1.2,2.7
				c-0.2,0.9-0.3,1.6-0.3,2.2V66h-7.3L146.3,36.4L146.3,36.4z"/>
			<path class="st0" d="M194.6,51.5c0,0.3,0,0.7,0,1c0,0.3,0,0.7-0.1,1h-22.5c0.1,1.1,0.3,2,0.8,2.9c0.5,0.9,1.1,1.7,1.8,2.3
				c0.8,0.7,1.7,1.2,2.7,1.5s2,0.6,3.1,0.6c1.8,0,3.4-0.3,4.7-1c1.3-0.7,2.3-1.6,3.2-2.8l4.9,3.9c-2.9,3.9-7.2,5.9-12.7,5.9
				c-2.3,0-4.4-0.3-6.3-1.1s-3.6-1.8-5-3c-1.4-1.3-2.5-2.9-3.3-4.8c-0.8-1.9-1.2-4.1-1.2-6.5c0-2.4,0.4-4.5,1.2-6.5
				c0.8-1.9,1.9-3.6,3.3-5c1.4-1.3,3.1-2.4,4.9-3.2c1.9-0.8,4-1.2,6.2-1.2c2.1,0,3.9,0.3,5.7,1c1.8,0.7,3.3,1.7,4.5,3
				c1.3,1.3,2.3,3,3,5C194.3,46.6,194.6,48.9,194.6,51.5z M187.2,48.2c0-0.9-0.2-1.8-0.4-2.7c-0.3-0.8-0.7-1.6-1.3-2.3
				c-0.6-0.7-1.3-1.2-2.2-1.6c-0.9-0.4-1.9-0.6-3.1-0.6c-2.3,0-4.1,0.7-5.6,2c-1.5,1.3-2.4,3-2.6,5.2L187.2,48.2L187.2,48.2z"/>
			<path class="st0" d="M229.4,65.9h-7v-4.4h-0.1c-1,1.8-2.4,3-4.3,3.9s-3.8,1.3-5.8,1.3c-2.3,0-4.3-0.4-6.1-1.3
				c-1.8-0.8-3.3-2-4.6-3.4c-1.3-1.4-2.3-3.1-2.9-5c-0.7-1.9-1-3.9-1-6.1s0.3-4.2,1.1-6.1c0.7-1.9,1.7-3.5,2.9-4.9
				c1.3-1.4,2.8-2.5,4.6-3.3c1.8-0.8,3.7-1.2,5.8-1.2c1.3,0,2.6,0.2,3.7,0.5c1.1,0.3,2,0.7,2.8,1.2c0.8,0.4,1.5,0.9,2.1,1.5
				c0.6,0.5,1.1,1.1,1.4,1.5h0.2V19.4h7.3L229.4,65.9L229.4,65.9z M205.1,51.1c0,1.2,0.2,2.3,0.5,3.4c0.3,1.2,0.8,2.2,1.6,3.1
				c0.7,0.9,1.6,1.7,2.7,2.3c1.1,0.6,2.3,0.8,3.8,0.8c1.3,0,2.6-0.3,3.7-0.8c1.1-0.6,2-1.3,2.8-2.2c0.8-0.9,1.3-1.9,1.8-3
				c0.4-1.2,0.6-2.3,0.6-3.4c0-1.2-0.2-2.3-0.6-3.4c-0.4-1.2-1-2.2-1.8-3.1c-0.8-0.9-1.7-1.7-2.8-2.3c-1.1-0.6-2.3-0.8-3.7-0.8
				c-1.4,0-2.7,0.3-3.8,0.8c-1.1,0.6-1.9,1.3-2.7,2.2c-0.7,0.9-1.3,1.9-1.6,3.1C205.3,48.7,205.1,49.9,205.1,51.1z"/>
			<path class="st0" d="M248.9,53.9h-14.8v-6.3h14.8V53.9z"/>
			<path class="st0" d="M252.5,26.3c0-1.2,0.4-2.3,1.3-3.1c0.9-0.9,2-1.3,3.3-1.3s2.5,0.4,3.4,1.3s1.4,1.9,1.4,3.2s-0.5,2.3-1.4,3.2
				c-0.9,0.8-2.1,1.3-3.4,1.3s-2.5-0.4-3.3-1.3C252.9,28.6,252.5,27.5,252.5,26.3z M253.5,36.4h7.3v29.6h-7.3V36.4z"/>
			<path class="st0" d="M264.1,42.3v-5.9h5.2v-8.5h7.3v8.5h7.3v5.9h-7.3V56c0,1.3,0.3,2.4,0.7,3.3c0.5,0.8,1.5,1.3,3.2,1.3
				c0.5,0,1-0.1,1.6-0.2c0.6-0.1,1.1-0.3,1.5-0.5l0.3,5.8c-0.7,0.3-1.4,0.4-2.3,0.6c-0.9,0.2-1.8,0.3-2.6,0.3c-2,0-3.6-0.3-4.8-0.8
				s-2.2-1.3-2.9-2.3c-0.8-1-1.3-2.1-1.5-3.3c-0.3-1.3-0.4-2.6-0.4-4V42.3H264.1z"/>
		</g>
	</g>
	<g>
		<path class="st1" d="M76.5,101.7h-1.7l6.6-15.4h1.5l6.6,15.4h-1.8l-1.7-4h-7.9L76.5,101.7z M78.7,96.3h6.8l-3.3-8.1L78.7,96.3z"/>
		<path class="st1" d="M104.2,88.9c-0.7-0.9-1.7-1.5-3.2-1.5c-1.5,0-3.3,0.9-3.3,2.8c0,1.9,1.6,2.4,3.3,3c2.2,0.8,4.5,1.4,4.5,4.5
			s-2.6,4.4-5,4.4c-1.8,0-3.8-0.8-4.8-2.3l1.3-1c0.7,1.1,1.9,1.9,3.5,1.9c1.6,0,3.4-1,3.4-3c0-2.2-1.8-2.7-3.8-3.3
			c-2-0.7-4.1-1.5-4.1-4.3c0-3,2.7-4.3,4.9-4.3c2.1,0,3.6,0.8,4.3,1.8L104.2,88.9z"/>
		<path class="st1" d="M113.4,92.9h-2.8v5.9c0,1.5,0.7,1.8,1.5,1.8c0.4,0,0.9-0.2,1.3-0.3l0.1,1.3c-0.5,0.2-1.1,0.3-1.8,0.3
			c-1.1,0-2.6-0.5-2.6-2.7v-6.3h-2.1v-1.3h2.1v-2.8h1.5v2.8h2.8V92.9z"/>
		<path class="st1" d="M124.8,97.1h-8.4c0.1,2,1.6,3.7,3.7,3.7c1.5,0,2.7-0.8,3.3-1.8l1.1,0.8c-1.2,1.5-2.7,2.2-4.3,2.2
			c-3,0-5.3-2.3-5.3-5.3s2.3-5.3,5.1-5.3c3.2,0,4.8,2.3,4.8,5C124.9,96.6,124.9,96.8,124.8,97.1z M123.4,95.9
			c-0.1-1.9-1.3-3.3-3.3-3.3c-2,0-3.4,1.6-3.6,3.3H123.4z"/>
		<path class="st1" d="M127.9,91.6h1.4c0.1,0.5,0.1,1.3,0.1,1.8h0.1c0.6-1.2,1.8-2,3.3-2c0.3,0,0.7,0,1,0.1l-0.2,1.4
			c-0.2-0.1-0.7-0.2-1-0.2c-1.6,0-3,1.1-3,3.8v5.2h-1.5v-7.9C128,93.3,128,92.3,127.9,91.6z"/>
		<path class="st1" d="M136.6,88.8c-0.5,0-1-0.4-1-1s0.5-1,1-1s1,0.4,1,1C137.6,88.3,137.1,88.8,136.6,88.8z M137.3,101.7h-1.5V91.6
			h1.5V101.7z"/>
		<path class="st1" d="M148.5,94c-0.5-0.8-1.5-1.3-2.6-1.3c-2.3,0-3.8,1.8-3.8,4.1c0,2.3,1.5,4.1,3.8,4.1c1.3,0,2.2-0.5,2.8-1.3
			l1.1,0.8c-0.8,1.1-2.1,1.8-3.8,1.8c-3.3,0-5.4-2.3-5.4-5.3s2.2-5.3,5.4-5.3c1.3,0,2.9,0.6,3.8,1.8L148.5,94z"/>
		<path class="st1" d="M155.5,100.2L155.5,100.2l3.2-8.5h1.6l-5,12.8c-0.6,1.6-1.4,2.6-3.2,2.6c-0.4,0-0.9-0.1-1.3-0.2l0.2-1.3
			c0.3,0.1,0.7,0.2,1.1,0.2c1,0,1.5-0.7,1.9-1.8l0.8-2.1l-4.3-10.1h1.7L155.5,100.2z"/>
		<path class="st1" d="M169.9,94c-0.5-0.8-1.5-1.3-2.6-1.3c-2.3,0-3.8,1.8-3.8,4.1c0,2.3,1.5,4.1,3.8,4.1c1.3,0,2.2-0.5,2.8-1.3
			l1.1,0.8c-0.8,1.1-2.1,1.8-3.8,1.8c-3.3,0-5.4-2.3-5.4-5.3s2.2-5.3,5.4-5.3c1.3,0,2.9,0.6,3.8,1.8L169.9,94z"/>
		<path class="st1" d="M175,101.7h-1.5V85.4h1.5V101.7z"/>
		<path class="st1" d="M188.1,97.1h-8.3c0.1,2,1.6,3.7,3.7,3.7c1.5,0,2.7-0.8,3.3-1.8l1.1,0.8c-1.2,1.5-2.7,2.2-4.3,2.2
			c-3,0-5.3-2.3-5.3-5.3s2.3-5.3,5.1-5.3c3.2,0,4.8,2.3,4.8,5C188.1,96.6,188.1,96.8,188.1,97.1z M186.6,95.9
			c-0.1-1.9-1.3-3.3-3.3-3.3c-2,0-3.4,1.6-3.5,3.3H186.6z"/>
		<path class="st1" d="M213.5,88.9c-0.7-0.9-1.7-1.5-3.2-1.5c-1.5,0-3.3,0.9-3.3,2.8c0,1.9,1.6,2.4,3.3,3c2.2,0.8,4.5,1.4,4.5,4.5
			s-2.6,4.4-5,4.4c-1.8,0-3.8-0.8-4.8-2.3l1.3-1c0.7,1.1,1.9,1.9,3.5,1.9c1.6,0,3.4-1,3.4-3c0-2.2-1.8-2.7-3.8-3.3
			c-2-0.7-4.1-1.5-4.1-4.3c0-3,2.7-4.3,4.9-4.3c2.1,0,3.6,0.8,4.3,1.8L213.5,88.9z"/>
		<path class="st1" d="M222.9,102c-3.2,0-5.4-2.3-5.4-5.3s2.3-5.3,5.4-5.3s5.4,2.3,5.4,5.3C228.3,99.7,226.1,102,222.9,102z
			 M222.9,92.6c-2.3,0-3.8,1.8-3.8,4.1c0,2.3,1.5,4.1,3.8,4.1c2.3,0,3.8-1.8,3.8-4.1C226.7,94.4,225.2,92.6,222.9,92.6z"/>
		<path class="st1" d="M233,101.7h-1.5V85.4h1.5V101.7z"/>
		<path class="st1" d="M244.3,101.7c-0.1-0.5-0.1-1.3-0.1-1.8h-0.1c-0.6,1.2-2,2-3.4,2c-2.6,0-3.8-1.7-3.8-4.2v-6.2h1.5v5.6
			c0,2.1,0.7,3.6,2.8,3.6c1.6,0,3.1-1.3,3.1-3.9v-5.2h1.5v7.9c0,0.5,0,1.5,0.1,2.3h-1.5L244.3,101.7L244.3,101.7z"/>
		<path class="st1" d="M254,92.9h-2.8v5.9c0,1.5,0.7,1.8,1.5,1.8c0.4,0,0.9-0.2,1.3-0.3l0.1,1.3c-0.5,0.2-1.1,0.3-1.8,0.3
			c-1.1,0-2.6-0.5-2.6-2.7v-6.3h-2.1v-1.3h2.1v-2.8h1.5v2.8h2.8L254,92.9L254,92.9z"/>
		<path class="st1" d="M257.1,88.8c-0.5,0-1-0.4-1-1s0.5-1,1-1c0.5,0,1,0.4,1,1C258.1,88.3,257.6,88.8,257.1,88.8z M257.9,101.7
			h-1.5V91.6h1.5V101.7z"/>
		<path class="st1" d="M266.4,102c-3.2,0-5.4-2.3-5.4-5.3s2.3-5.3,5.4-5.3c3.2,0,5.4,2.3,5.4,5.3C271.8,99.7,269.6,102,266.4,102z
			 M266.4,92.6c-2.3,0-3.8,1.8-3.8,4.1c0,2.3,1.5,4.1,3.8,4.1c2.3,0,3.8-1.8,3.8-4.1C270.2,94.4,268.8,92.6,266.4,92.6z"/>
		<path class="st1" d="M276.3,91.6c0.1,0.5,0.1,1.3,0.1,1.8h0.1c0.6-1.2,2-2,3.4-2c2.6,0,3.8,1.7,3.8,4.2v6.2h-1.5v-5.6
			c0-2.1-0.7-3.6-2.8-3.6c-1.6,0-3.1,1.3-3.1,3.9v5.2h-1.5v-7.9c0-0.5,0-1.5-0.1-2.3h1.5L276.3,91.6L276.3,91.6z"/>
		<g>
			<path class="st1" d="M195.1,87c0,1.8-1.3,3.1-3.2,3.1c-1.8,0-3.2-1.3-3.2-3.1c0-1.7,1.4-3.1,3.2-3.1
				C193.8,84,195.1,85.3,195.1,87z M189.6,87c0,1.3,1,2.4,2.4,2.4c1.3,0,2.3-1.1,2.3-2.4c0-1.3-1-2.5-2.3-2.5
				C190.6,84.5,189.6,85.7,189.6,87z M191.5,88.6h-0.8v-3.1c0.3-0.1,0.7-0.1,1.2-0.1c0.6,0,0.8,0.1,1.1,0.3c0.2,0.2,0.3,0.3,0.3,0.7
				s-0.3,0.6-0.7,0.8l0,0c0.3,0.1,0.5,0.3,0.6,0.8c0.1,0.5,0.2,0.7,0.3,0.8h-0.8c-0.1-0.1-0.2-0.4-0.3-0.8c-0.1-0.3-0.3-0.5-0.7-0.5
				h-0.3V88.6z M191.5,86.9h0.3c0.4,0,0.8-0.2,0.8-0.4c0-0.3-0.2-0.5-0.7-0.5c-0.2,0-0.3,0-0.4,0L191.5,86.9L191.5,86.9z"/>
		</g>
	</g>
</g>
</svg>
