<?xml version="1.0" encoding="UTF-8"?>
<svg id="Layer_1" xmlns="http://www.w3.org/2000/svg" xmlns:xlink="http://www.w3.org/1999/xlink" version="1.1" viewBox="0 0 322.8 119">
  <!-- Generator: Adobe Illustrator 30.0.0, SVG Export Plug-In . SVG Version: 2.1.1 Build 123)  -->
  <defs>
    <style>
      .st0 {
        fill: none;
      }

      .st1 {
        fill: #ebab00;
      }

      .st2 {
        fill: #006b35;
      }

      .st3 {
        fill: #fff;
      }

      .st4 {
        fill: #00693c;
      }

      .st5 {
        clip-path: url(#clippath);
      }
    </style>
    <clipPath id="clippath">
      <rect class="st0" x="236.68" y="88.48" width="69.17" height="28.21"/>
    </clipPath>
  </defs>
  <g>
    <g>
      <g>
        <polygon class="st3" points="23.46 7.12 23.46 10.27 61.84 33.84 64.4 32.27 23.46 7.12"/>
        <polygon class="st3" points="2.71 2.31 2.71 5.46 59.73 40.49 62.3 38.91 2.71 2.31"/>
      </g>
      <g>
        <polygon class="st3" points="23.46 23.07 23.46 26.22 61.84 49.8 64.4 48.22 23.46 23.07"/>
        <polygon class="st3" points="2.71 18.26 2.71 21.41 59.73 56.44 62.3 54.86 2.71 18.26"/>
      </g>
      <polygon class="st3" points="23.46 38.65 23.46 41.8 61.84 65.37 64.4 63.8 23.46 38.65"/>
      <polygon class="st3" points="2.71 33.84 2.71 36.99 59.73 72.02 62.3 70.44 2.71 33.84"/>
    </g>
    <g>
      <path class="st3" d="M310.08,35.46c0-.7.13-1.36.4-1.98s.63-1.15,1.1-1.61c.46-.45,1-.82,1.62-1.08.62-.27,1.28-.4,1.98-.4s1.36.13,1.98.4c.62.27,1.16.63,1.62,1.08s.83.99,1.1,1.61c.27.62.4,1.28.4,1.98s-.13,1.36-.4,1.97-.63,1.14-1.1,1.6c-.46.45-1,.81-1.62,1.07s-1.28.39-1.98.39-1.36-.13-1.98-.39c-.62-.26-1.16-.62-1.62-1.07s-.83-.99-1.1-1.6c-.27-.61-.4-1.27-.4-1.97ZM310.89,35.46c0,.58.11,1.13.33,1.65s.53.98.92,1.37.84.7,1.36.93c.52.22,1.08.33,1.67.33s1.15-.11,1.68-.33c.52-.22.98-.53,1.36-.93.39-.39.69-.85.92-1.37.22-.52.33-1.07.33-1.65s-.11-1.15-.33-1.67c-.22-.52-.53-.98-.92-1.36-.39-.39-.84-.69-1.36-.92-.52-.22-1.08-.33-1.68-.33s-1.15.11-1.67.33c-.52.22-.98.53-1.36.92-.39.39-.69.84-.92,1.36-.22.52-.33,1.08-.33,1.67ZM313.2,32.58h2.01c.27,0,.53.03.78.09s.48.16.68.29c.2.13.36.31.48.51.12.21.18.47.18.78,0,.42-.12.76-.36,1.02-.24.26-.56.44-.96.53l1.54,2.5h-1.25l-1.34-2.39h-.74v2.39h-1.03v-5.72h0ZM315.05,35.08c.3,0,.58-.06.85-.17.27-.11.4-.34.4-.68,0-.31-.12-.52-.37-.63-.25-.1-.5-.16-.77-.16h-.94v1.63h.83Z"/>
      <path class="st3" d="M110.22,34.35c-.89-1.15-2.14-2.12-3.76-2.9s-3.25-1.17-4.9-1.17c-.98,0-1.95.12-2.93.37-.98.24-1.87.62-2.66,1.13-.8.51-1.46,1.18-1.97,2s-.77,1.81-.77,2.96c0,1.07.22,1.98.67,2.73.44.76,1.05,1.4,1.83,1.93s1.72,1,2.83,1.4,2.33.8,3.66,1.2c1.51.49,3.07,1.04,4.7,1.67,1.62.62,3.11,1.44,4.46,2.46s2.46,2.31,3.33,3.86c.87,1.56,1.3,3.49,1.3,5.8,0,2.53-.47,4.74-1.4,6.63s-2.18,3.45-3.73,4.7c-1.56,1.24-3.38,2.18-5.46,2.8-2.09.62-4.29.93-6.59.93-3.06,0-6.06-.57-8.99-1.7s-5.33-2.81-7.19-5.03l5.99-5.6c1.15,1.6,2.7,2.86,4.63,3.8,1.93.93,3.83,1.4,5.7,1.4.98,0,1.98-.12,3-.37,1.02-.24,1.94-.65,2.76-1.23.82-.58,1.49-1.3,2-2.17.51-.87.77-1.94.77-3.23s-.29-2.28-.87-3.1-1.36-1.53-2.33-2.13c-.98-.6-2.13-1.12-3.46-1.57-1.33-.44-2.73-.91-4.2-1.4-1.42-.44-2.84-.98-4.26-1.6-1.42-.62-2.7-1.44-3.83-2.46-1.13-1.02-2.05-2.28-2.76-3.76-.71-1.49-1.07-3.34-1.07-5.56,0-2.4.5-4.46,1.5-6.19,1-1.73,2.31-3.16,3.93-4.3,1.62-1.13,3.46-1.98,5.53-2.53,2.07-.55,4.16-.83,6.29-.83,2.4,0,4.83.42,7.29,1.27,2.46.84,4.61,2.11,6.43,3.8l-5.46,5.99h0Z"/>
      <path class="st3" d="M140.12,38.75c2.09,0,3.87.37,5.36,1.1s2.71,1.7,3.66,2.9,1.65,2.58,2.1,4.13c.44,1.56.67,3.15.67,4.8v19.98h-7.99v-17.59c0-.93-.07-1.9-.2-2.9-.13-1-.41-1.91-.83-2.73s-1.02-1.5-1.8-2.03-1.81-.8-3.1-.8-2.4.24-3.33.73c-.93.49-1.71,1.14-2.33,1.97-.62.82-1.09,1.74-1.4,2.76-.31,1.02-.47,2.07-.47,3.13v17.45h-7.99V21.3h7.99v22.85h.13c.31-.67.77-1.32,1.37-1.97.6-.64,1.3-1.22,2.1-1.73s1.71-.92,2.73-1.23c1.02-.31,2.13-.47,3.33-.47Z"/>
      <path class="st3" d="M157.42,39.68h7.66v5.33h.13c.89-1.87,2.13-3.37,3.73-4.53,1.6-1.15,3.46-1.73,5.6-1.73.31,0,.64,0,1,.03.35.02.67.08.93.17v7.33c-.53-.13-.99-.22-1.37-.27-.38-.04-.74-.07-1.1-.07-1.82,0-3.29.33-4.4,1s-1.98,1.47-2.6,2.4c-.62.93-1.04,1.89-1.27,2.86-.22.98-.33,1.75-.33,2.33v17.12h-7.99v-31.97h.01Z"/>
      <path class="st3" d="M209.65,56.07v1.07c0,.36-.02.71-.07,1.07h-24.31c.09,1.16.39,2.21.9,3.16.51.96,1.19,1.78,2.03,2.46.84.69,1.8,1.23,2.86,1.63,1.07.4,2.18.6,3.33.6,2,0,3.69-.37,5.06-1.1,1.38-.73,2.51-1.74,3.4-3.03l5.33,4.26c-3.15,4.26-7.73,6.39-13.72,6.39-2.49,0-4.77-.39-6.86-1.17s-3.9-1.88-5.43-3.3c-1.53-1.42-2.73-3.16-3.6-5.23-.87-2.07-1.3-4.41-1.3-7.03s.43-4.92,1.3-7.03c.87-2.11,2.05-3.91,3.56-5.4s3.3-2.64,5.36-3.46c2.07-.82,4.3-1.23,6.69-1.23,2.22,0,4.27.37,6.16,1.1s3.52,1.82,4.9,3.26c1.38,1.44,2.45,3.24,3.23,5.4.78,2.15,1.17,4.67,1.17,7.56v.02h.01ZM201.65,52.47c0-1.02-.14-2-.43-2.93s-.74-1.75-1.37-2.46c-.62-.71-1.41-1.28-2.36-1.7-.96-.42-2.08-.63-3.36-.63-2.4,0-4.43.72-6.1,2.16-1.67,1.44-2.59,3.3-2.76,5.56h16.39-.01Z"/>
      <path class="st3" d="M247.31,71.65h-7.59v-4.8h-.13c-1.11,1.87-2.65,3.29-4.63,4.26-1.98.98-4.1,1.47-6.36,1.47-2.44,0-4.63-.46-6.56-1.37s-3.57-2.13-4.93-3.66c-1.36-1.53-2.4-3.33-3.13-5.4-.73-2.07-1.1-4.27-1.1-6.63s.38-4.55,1.13-6.59,1.82-3.82,3.2-5.33c1.38-1.51,3.02-2.7,4.93-3.56,1.91-.87,4-1.3,6.26-1.3,1.47,0,2.77.17,3.93.5,1.15.33,2.16.74,3.03,1.23.87.49,1.61,1.02,2.23,1.6.62.58,1.13,1.13,1.53,1.67h.2v-22.45h7.99v50.36h0ZM220.99,55.53c0,1.24.19,2.49.57,3.73.38,1.24.94,2.35,1.7,3.33.75.98,1.71,1.78,2.86,2.4s2.51.93,4.06.93c1.47,0,2.77-.3,3.93-.9,1.15-.6,2.14-1.39,2.96-2.36.82-.98,1.44-2.08,1.87-3.3.42-1.22.63-2.45.63-3.7s-.21-2.49-.63-3.73c-.42-1.24-1.04-2.35-1.87-3.33-.82-.98-1.81-1.78-2.96-2.4-1.16-.62-2.46-.93-3.93-.93-1.56,0-2.91.3-4.06.9-1.16.6-2.11,1.39-2.86,2.36-.76.98-1.32,2.08-1.7,3.3-.38,1.22-.57,2.45-.57,3.7Z"/>
      <path class="st3" d="M268.3,58.67h-15.99v-6.79h15.99v6.79Z"/>
      <path class="st3" d="M272.2,28.82c0-1.29.48-2.41,1.43-3.36.95-.95,2.16-1.43,3.63-1.43s2.7.46,3.7,1.37c1,.91,1.5,2.05,1.5,3.43s-.5,2.52-1.5,3.43-2.23,1.37-3.7,1.37-2.68-.48-3.63-1.43c-.96-.95-1.43-2.08-1.43-3.36v-.02ZM273.33,39.68h7.99v31.97h-7.99v-31.97Z"/>
      <path class="st3" d="M284.77,46.08v-6.39h5.6v-9.26h7.86v9.26h7.99v6.39h-7.99v14.85c0,1.42.26,2.6.77,3.53.51.93,1.65,1.4,3.43,1.4.53,0,1.11-.06,1.73-.17.62-.11,1.18-.28,1.67-.5l.27,6.26c-.71.27-1.56.48-2.53.63-.98.16-1.91.23-2.8.23-2.13,0-3.86-.3-5.2-.9-1.33-.6-2.39-1.42-3.16-2.46-.78-1.04-1.31-2.24-1.6-3.6-.29-1.35-.43-2.81-.43-4.36v-14.92h-5.61Z"/>
    </g>
  </g>
  <g>
    <g>
      <polygon class="st3" points="236.68 88.47 243.37 116.68 305.86 116.68 299.17 88.47 236.68 88.47"/>
      <polygon class="st4" points="247.32 95.93 252.81 95.93 254.59 104.22 254.65 104.22 257.17 95.93 263.48 95.93 265.95 104.22 266.02 104.22 267.77 95.93 272.86 95.93 269.68 109.2 262.55 109.2 260.14 101.13 260.08 101.13 257.67 109.2 250.48 109.2 247.32 95.93"/>
      <polygon class="st1" points="272.86 95.93 280.04 95.93 282.45 104.01 282.51 104.01 284.92 95.93 292.05 95.93 295.24 109.2 290.14 109.2 288.37 100.92 288.33 100.92 285.84 109.2 279.52 109.2 277.02 100.92 276.95 100.92 275.17 109.2 269.68 109.2 272.86 95.93"/>
    </g>
    <g class="st5">
      <g>
        <path class="st2" d="M296.39,107.65c-.42,0-.76.35-.76.78s.34.78.76.78.76-.35.76-.78-.33-.78-.76-.78M296.39,109.08c-.36,0-.63-.28-.63-.65s.27-.65.63-.65.61.28.61.65-.26.65-.61.65"/>
        <path class="st2" d="M296.52,108.5c.1-.03.15-.1.15-.22,0-.15-.09-.23-.27-.23h-.25v.73h.12v-.27h.11l.19.27h.16l-.21-.29h0ZM296.55,108.27c0,.08-.05.12-.14.12h-.14v-.23h.14c.11,0,.14.06.14.11"/>
      </g>
    </g>
  </g>
  <g>
    <path class="st3" d="M86.02,96.61c.11,0,.23,0,.36.01v.88h-.34c-.49,0-.83.12-1.02.35-.19.23-.28.58-.28,1.05v.63h1.5v.9h-1.5v5.56h-.97v-5.56h-1.05v-.9h1.05v-.63c0-.82.2-1.4.59-1.76.39-.36.95-.53,1.68-.53Z"/>
    <path class="st3" d="M92.23,105.99h-.95v-.71c-.26.29-.57.51-.91.65-.34.14-.7.21-1.08.21-.61,0-1.12-.17-1.55-.51-.43-.34-.64-.82-.64-1.46s.22-1.12.65-1.46c.43-.34,1-.51,1.69-.51.47,0,.89.06,1.26.17s.55.16.55.15v-.71c0-.51-.16-.89-.47-1.15-.31-.25-.72-.38-1.22-.38-.25,0-.47.04-.66.12-.19.08-.36.17-.49.26-.13.1-.27.23-.41.4l-.67-.62c.19-.22.38-.4.57-.53.19-.14.42-.26.7-.37s.6-.17.96-.17c.79,0,1.43.2,1.92.61.49.4.73,1.04.73,1.9v4.11ZM89.36,105.24c.37,0,.72-.09,1.04-.26s.61-.43.86-.75v-.82s-.18-.04-.53-.15c-.36-.11-.76-.16-1.22-.16s-.83.11-1.07.32c-.24.21-.36.47-.36.76,0,.34.12.61.36.79.24.18.54.28.92.28Z"/>
    <path class="st3" d="M94.12,97.34c0-.19.07-.36.22-.51.14-.15.32-.22.52-.22s.38.07.52.22.22.31.22.51-.07.38-.22.52c-.15.15-.32.22-.52.22s-.38-.07-.52-.22c-.15-.14-.22-.32-.22-.52ZM95.34,105.99h-.97v-6.45h.97v6.45Z"/>
    <path class="st3" d="M99.73,106.02c-.61,0-1.07-.14-1.39-.43-.32-.29-.48-.78-.48-1.5v-3.66h-1.05v-.9h1.05v-1.8h.97v1.8h1.5v.9h-1.5v3.52c0,.4.06.69.19.88.13.19.39.29.8.29.07,0,.24,0,.51-.01v.88c-.24.02-.44.03-.61.03Z"/>
    <path class="st3" d="M105.81,102.76c0-.47.07-.9.22-1.32s.35-.77.61-1.07c.26-.3.58-.54.95-.72.37-.18.78-.27,1.23-.27s.85.09,1.22.27c.36.18.68.43.96.74v-3.62h.97v9.22h-.94v-.88c-.28.32-.61.58-.98.76-.37.18-.78.27-1.23.27s-.86-.09-1.23-.27c-.37-.18-.69-.42-.95-.72-.26-.3-.47-.66-.61-1.07-.15-.41-.22-.85-.22-1.31ZM106.82,102.76c0,.34.05.67.15.97.1.3.23.56.42.78.18.22.4.39.66.52.26.13.55.19.88.19s.62-.06.88-.19c.26-.13.48-.3.67-.52.18-.22.32-.48.42-.78.1-.3.15-.63.15-.97s-.05-.67-.15-.97c-.1-.3-.24-.56-.42-.78-.18-.22-.4-.39-.67-.52-.26-.13-.56-.19-.88-.19s-.62.06-.88.19c-.26.13-.48.3-.66.52-.18.22-.32.48-.42.78-.1.3-.15.63-.15.97Z"/>
    <path class="st3" d="M114.77,103.07c.04.67.26,1.19.65,1.58.39.39.9.58,1.53.58.38,0,.72-.08,1.02-.25.3-.17.58-.4.82-.7l.67.62c-.29.35-.64.65-1.04.88-.4.24-.9.36-1.48.36-.48,0-.92-.08-1.32-.24-.4-.16-.73-.39-1-.69-.27-.29-.48-.65-.63-1.05-.15-.41-.22-.86-.22-1.35,0-.47.07-.91.2-1.32.14-.42.33-.78.58-1.09.25-.31.56-.56.93-.74.37-.18.79-.27,1.25-.27.52,0,.96.1,1.32.3.36.2.66.45.88.76.22.31.39.66.49,1.05s.16.76.16,1.13c0,.11,0,.26-.01.45h-4.81ZM116.74,100.3c-.56,0-1,.18-1.32.55-.32.37-.52.82-.6,1.34h3.79c-.04-.56-.22-1.02-.56-1.37-.34-.35-.78-.53-1.31-.53ZM115.91,98.5l1.2-1.73h1.28l-1.5,1.73h-.97Z"/>
    <path class="st3" d="M123.98,103.32l-.96-.22c-.61-.14-1.06-.37-1.36-.68-.3-.31-.45-.71-.45-1.18,0-.3.06-.56.19-.8.13-.23.29-.43.5-.59.21-.16.45-.28.72-.36.27-.08.55-.12.83-.12.47,0,.89.09,1.28.28.39.19.73.44,1.03.76l-.66.7c-.15-.16-.36-.34-.64-.53-.28-.2-.63-.3-1.07-.3-.36,0-.65.08-.87.25-.22.17-.33.39-.33.66,0,.23.08.42.23.59.15.16.39.28.72.36l1.01.24c.57.13,1.01.35,1.33.65.32.3.47.69.47,1.17,0,.56-.22,1.03-.66,1.39-.44.36-1.02.55-1.75.55-.59,0-1.11-.12-1.56-.37-.45-.25-.8-.53-1.05-.84l.65-.67c.24.3.53.54.87.72.34.18.7.27,1.08.27.45,0,.8-.09,1.06-.26.26-.18.39-.42.39-.72,0-.22-.08-.41-.24-.57-.16-.16-.41-.28-.74-.36Z"/>
    <path class="st3" d="M127.29,102.76c0-.47.08-.9.24-1.32.16-.41.39-.77.68-1.07.29-.3.63-.54,1.03-.72.4-.18.83-.27,1.29-.27s.9.09,1.3.27c.4.18.74.42,1.03.72.29.3.52.66.69,1.07.17.41.25.85.25,1.32s-.08.9-.25,1.31c-.17.41-.4.76-.69,1.07-.29.3-.63.54-1.03.72-.4.18-.83.27-1.3.27s-.9-.09-1.29-.27c-.4-.18-.74-.42-1.03-.72-.29-.3-.52-.66-.68-1.07-.16-.41-.24-.85-.24-1.31ZM128.29,102.76c0,.69.21,1.28.63,1.75.42.47.96.71,1.61.71s1.2-.24,1.62-.71c.42-.47.63-1.06.63-1.75s-.21-1.28-.63-1.75c-.42-.47-.96-.71-1.62-.71s-1.2.24-1.61.71c-.42.47-.63,1.06-.63,1.75Z"/>
    <path class="st3" d="M138.94,99.46v.94c-.09,0-.16-.01-.22-.01-.76,0-1.3.22-1.64.65-.34.43-.51,1.17-.51,2.21v2.75h-.98v-6.45h.95v.86c.29-.36.6-.61.93-.74.33-.14.72-.2,1.18-.2h.11s.11,0,.18.01Z"/>
    <path class="st3" d="M140.38,99.54h.95v.78c.17-.24.41-.45.74-.65.33-.19.7-.29,1.11-.29.44,0,.82.09,1.15.28.33.19.58.45.78.78.23-.34.52-.61.87-.79.35-.18.73-.28,1.15-.28.86,0,1.49.25,1.89.74.4.5.6,1.2.6,2.11v3.75h-.97v-3.83c0-.61-.13-1.07-.38-1.39-.25-.32-.63-.48-1.12-.48-.53,0-.94.19-1.23.56-.29.37-.44.9-.44,1.59v3.56h-.97v-3.77c0-.65-.13-1.13-.38-1.46-.25-.32-.61-.48-1.07-.48-.55,0-.98.19-1.26.57-.29.38-.43.9-.43,1.58v3.56h-.98v-6.45Z"/>
    <path class="st3" d="M156.46,105.99h-.95v-.71c-.26.29-.57.51-.91.65-.34.14-.7.21-1.08.21-.61,0-1.12-.17-1.55-.51-.43-.34-.64-.82-.64-1.46s.22-1.12.65-1.46c.43-.34,1-.51,1.69-.51.47,0,.89.06,1.26.17s.55.16.55.15v-.71c0-.51-.16-.89-.47-1.15-.31-.25-.72-.38-1.22-.38-.25,0-.47.04-.66.12-.19.08-.36.17-.49.26-.13.1-.27.23-.41.4l-.67-.62c.19-.22.38-.4.57-.53.19-.14.42-.26.7-.37s.6-.17.96-.17c.79,0,1.43.2,1.92.61.49.4.73,1.04.73,1.9v4.11ZM153.59,105.24c.37,0,.72-.09,1.04-.26s.61-.43.86-.75v-.82s-.18-.04-.53-.15c-.36-.11-.76-.16-1.22-.16s-.83.11-1.07.32c-.24.21-.36.47-.36.76,0,.34.12.61.36.79.24.18.54.28.92.28Z"/>
    <path class="st3" d="M158.35,97.34c0-.19.07-.36.22-.51.14-.15.32-.22.52-.22s.38.07.52.22.22.31.22.51-.07.38-.22.52c-.15.15-.32.22-.52.22s-.38-.07-.52-.22c-.15-.14-.22-.32-.22-.52ZM159.57,105.99h-.97v-6.45h.97v6.45Z"/>
    <path class="st3" d="M164.5,103.32l-.96-.22c-.61-.14-1.06-.37-1.36-.68-.3-.31-.45-.71-.45-1.18,0-.3.06-.56.19-.8.13-.23.29-.43.5-.59.21-.16.45-.28.72-.36s.55-.12.83-.12c.46,0,.89.09,1.28.28.39.19.73.44,1.03.76l-.66.7c-.15-.16-.36-.34-.64-.53-.28-.2-.63-.3-1.07-.3-.36,0-.65.08-.87.25-.22.17-.33.39-.33.66,0,.23.08.42.23.59.15.16.39.28.72.36l1.01.24c.57.13,1.01.35,1.33.65.32.3.47.69.47,1.17,0,.56-.22,1.03-.66,1.39-.44.36-1.02.55-1.75.55-.59,0-1.11-.12-1.56-.37-.45-.25-.8-.53-1.05-.84l.65-.67c.24.3.53.54.87.72.34.18.7.27,1.08.27.45,0,.8-.09,1.06-.26.26-.18.39-.42.39-.72,0-.22-.08-.41-.24-.57-.16-.16-.41-.28-.74-.36Z"/>
    <path class="st3" d="M178.45,102.76c0,.47-.07.9-.22,1.31-.15.41-.35.76-.61,1.07-.26.3-.58.54-.95.72-.37.18-.78.27-1.22.27s-.85-.09-1.22-.26c-.36-.18-.68-.42-.96-.74v3.41h-.97v-9.01h.95v.88c.27-.33.59-.58.97-.76.37-.18.78-.28,1.23-.28s.86.09,1.22.27c.37.18.69.42.95.72.26.3.47.66.61,1.07.14.41.22.85.22,1.32ZM177.45,102.76c0-.34-.05-.67-.14-.97-.1-.3-.23-.56-.41-.78-.18-.22-.4-.39-.66-.52s-.56-.19-.88-.19-.62.06-.88.19-.49.3-.67.52c-.18.22-.32.48-.42.78-.1.3-.15.63-.15.97s.05.67.15.97c.1.3.23.56.42.78.18.22.4.39.67.52.26.13.56.19.88.19s.62-.06.88-.19c.26-.13.48-.3.66-.52.17-.22.31-.48.41-.78.1-.3.14-.63.14-.97Z"/>
    <path class="st3" d="M184.88,105.99h-.95v-.71c-.26.29-.57.51-.91.65-.34.14-.7.21-1.08.21-.61,0-1.12-.17-1.55-.51-.43-.34-.64-.82-.64-1.46s.22-1.12.65-1.46c.43-.34,1-.51,1.69-.51.47,0,.89.06,1.26.17s.55.16.55.15v-.71c0-.51-.16-.89-.47-1.15-.31-.25-.72-.38-1.22-.38-.25,0-.46.04-.66.12-.19.08-.36.17-.49.26s-.27.23-.41.4l-.67-.62c.19-.22.38-.4.57-.53.19-.14.42-.26.71-.37s.6-.17.96-.17c.79,0,1.43.2,1.92.61.49.4.73,1.04.73,1.9v4.11ZM182,105.24c.37,0,.72-.09,1.04-.26s.61-.43.86-.75v-.82s-.18-.04-.53-.15c-.36-.11-.76-.16-1.22-.16s-.83.11-1.07.32c-.24.21-.36.47-.36.76,0,.34.12.61.36.79.24.18.54.28.92.28Z"/>
    <path class="st3" d="M190.25,99.46v.94c-.09,0-.16-.01-.22-.01-.76,0-1.3.22-1.64.65-.34.43-.51,1.17-.51,2.21v2.75h-.97v-6.45h.95v.86c.29-.36.6-.61.93-.74.33-.14.72-.2,1.18-.2h.11s.11,0,.18.01Z"/>
    <path class="st3" d="M194.06,106.02c-.61,0-1.07-.14-1.39-.43-.32-.29-.48-.78-.48-1.5v-3.66h-1.05v-.9h1.05v-1.8h.98v1.8h1.5v.9h-1.5v3.52c0,.4.06.69.19.88.13.19.39.29.8.29.07,0,.24,0,.51-.01v.88c-.24.02-.44.03-.61.03Z"/>
    <path class="st3" d="M196.24,97.34c0-.19.07-.36.22-.51.15-.15.32-.22.52-.22s.38.07.52.22.22.31.22.51-.07.38-.22.52c-.14.15-.32.22-.52.22s-.38-.07-.52-.22c-.14-.14-.22-.32-.22-.52ZM197.47,105.99h-.97v-6.45h.97v6.45Z"/>
    <path class="st3" d="M200.38,103.07c.04.67.26,1.19.65,1.58.39.39.9.58,1.53.58.38,0,.72-.08,1.02-.25s.58-.4.82-.7l.67.62c-.29.35-.64.65-1.04.88-.4.24-.9.36-1.47.36-.48,0-.92-.08-1.32-.24-.4-.16-.73-.39-1-.69-.27-.29-.48-.65-.63-1.05-.15-.41-.22-.86-.22-1.35,0-.47.07-.91.2-1.32.14-.42.33-.78.58-1.09.25-.31.56-.56.93-.74.37-.18.79-.27,1.25-.27.52,0,.96.1,1.32.3.36.2.66.45.88.76.22.31.39.66.49,1.05s.16.76.16,1.13c0,.11,0,.26-.01.45h-4.81ZM202.34,100.3c-.56,0-1,.18-1.32.55-.32.37-.52.82-.6,1.34h3.79c-.04-.56-.22-1.02-.56-1.37s-.78-.53-1.31-.53Z"/>
    <path class="st3" d="M210.76,102.76c0-.47.07-.9.22-1.32.15-.41.35-.77.61-1.07.26-.3.58-.54.95-.72.37-.18.78-.27,1.22-.27s.85.09,1.22.27c.36.18.68.43.96.74v-3.62h.97v9.22h-.94v-.88c-.28.32-.61.58-.98.76-.37.18-.78.27-1.23.27s-.86-.09-1.22-.27c-.37-.18-.69-.42-.95-.72-.26-.3-.47-.66-.61-1.07-.14-.41-.22-.85-.22-1.31ZM211.76,102.76c0,.34.05.67.14.97.1.3.24.56.42.78.18.22.4.39.66.52.26.13.55.19.88.19s.62-.06.88-.19c.26-.13.49-.3.67-.52.18-.22.32-.48.42-.78.1-.3.15-.63.15-.97s-.05-.67-.15-.97c-.1-.3-.24-.56-.42-.78-.18-.22-.4-.39-.67-.52-.26-.13-.56-.19-.88-.19s-.62.06-.88.19c-.26.13-.48.3-.66.52-.18.22-.32.48-.42.78-.1.3-.14.63-.14.97Z"/>
    <path class="st3" d="M219.72,103.07c.04.67.26,1.19.65,1.58.39.39.9.58,1.53.58.38,0,.72-.08,1.02-.25s.58-.4.82-.7l.67.62c-.29.35-.64.65-1.04.88-.4.24-.9.36-1.47.36-.48,0-.92-.08-1.32-.24-.4-.16-.73-.39-1-.69-.27-.29-.48-.65-.63-1.05-.15-.41-.22-.86-.22-1.35,0-.47.07-.91.2-1.32.14-.42.33-.78.58-1.09.25-.31.56-.56.93-.74.37-.18.79-.27,1.25-.27.52,0,.96.1,1.32.3.36.2.66.45.88.76.22.31.39.66.49,1.05s.16.76.16,1.13c0,.11,0,.26-.01.45h-4.81ZM221.68,100.3c-.56,0-1,.18-1.32.55-.32.37-.52.82-.6,1.34h3.79c-.04-.56-.22-1.02-.56-1.37s-.78-.53-1.31-.53Z"/>
  </g>
</svg>