<?xml version="1.0" encoding="UTF-8"?>
<svg id="Layer_1" xmlns="http://www.w3.org/2000/svg" xmlns:xlink="http://www.w3.org/1999/xlink" version="1.1" viewBox="0 0 322.8 119">
  <!-- Generator: Adobe Illustrator 30.4.0, SVG Export Plug-In . SVG Version: 2.1.4 Build 226)  -->
  <defs>
    <style>
      .st0 {
        fill: none;
      }

      .st1 {
        fill: #e9a902;
      }

      .st2 {
        fill: #016b36;
      }

      .st3 {
        fill: #fff;
      }

      .st4 {
        fill: #01693c;
      }

      .st5 {
        clip-path: url(#clippath);
      }
    </style>
    <clipPath id="clippath">
      <rect class="st0" x="242.16" y="88" width="70.76" height="28.86"/>
    </clipPath>
  </defs>
  <g>
    <g>
      <g>
        <polygon class="st3" points="23.56 6.96 23.56 10.11 61.94 33.68 64.5 32.11 23.56 6.96"/>
        <polygon class="st3" points="2.8 2.15 2.8 5.3 59.83 40.33 62.4 38.75 2.8 2.15"/>
      </g>
      <g>
        <polygon class="st3" points="23.56 22.91 23.56 26.06 61.94 49.64 64.5 48.06 23.56 22.91"/>
        <polygon class="st3" points="2.8 18.1 2.8 21.25 59.83 56.28 62.4 54.7 2.8 18.1"/>
      </g>
      <polygon class="st3" points="23.56 38.49 23.56 41.64 61.94 65.21 64.5 63.64 23.56 38.49"/>
      <polygon class="st3" points="2.8 33.68 2.8 36.83 59.83 71.86 62.4 70.28 2.8 33.68"/>
    </g>
    <g>
      <path class="st3" d="M310.2,35.3c0-.7.13-1.36.4-1.98.27-.62.63-1.15,1.1-1.61.46-.45,1-.82,1.62-1.08.62-.27,1.28-.4,1.98-.4s1.36.13,1.98.4c.62.27,1.16.63,1.62,1.08.46.45.83.99,1.1,1.61.27.62.4,1.28.4,1.98s-.13,1.36-.4,1.97-.63,1.14-1.1,1.6c-.46.45-1,.81-1.62,1.07s-1.28.39-1.98.39-1.36-.13-1.98-.39c-.62-.26-1.16-.62-1.62-1.07-.46-.45-.83-.99-1.1-1.6-.27-.61-.4-1.27-.4-1.97ZM311.01,35.3c0,.58.11,1.13.33,1.65s.53.98.92,1.37.84.7,1.36.93c.52.22,1.08.33,1.67.33s1.15-.11,1.68-.33c.52-.22.98-.53,1.36-.93.39-.39.69-.85.92-1.37.22-.52.33-1.07.33-1.65s-.11-1.15-.33-1.67c-.22-.52-.53-.98-.92-1.36-.39-.39-.84-.69-1.36-.92-.52-.22-1.08-.33-1.68-.33s-1.15.11-1.67.33c-.52.22-.98.53-1.36.92-.39.39-.69.84-.92,1.36-.22.52-.33,1.08-.33,1.67ZM313.32,32.42h2.01c.27,0,.53.03.78.09s.48.16.68.29c.2.13.36.31.48.51.12.21.18.47.18.78,0,.42-.12.76-.36,1.02-.24.26-.56.44-.96.53l1.54,2.5h-1.25l-1.34-2.39h-.74v2.39h-1.03v-5.72h0ZM315.17,34.92c.3,0,.58-.06.85-.17.27-.11.4-.34.4-.68,0-.31-.12-.52-.37-.63-.25-.1-.5-.16-.77-.16h-.94v1.63h.83Z"/>
      <path class="st3" d="M110.32,34.19c-.89-1.15-2.14-2.12-3.76-2.9-1.62-.78-3.25-1.17-4.9-1.17-.98,0-1.95.12-2.93.37-.98.24-1.87.62-2.66,1.13-.8.51-1.46,1.18-1.97,2-.51.82-.77,1.81-.77,2.96,0,1.07.22,1.98.67,2.73.44.76,1.05,1.4,1.83,1.93s1.72,1,2.83,1.4c1.11.4,2.33.8,3.66,1.2,1.51.49,3.07,1.04,4.7,1.67,1.62.62,3.11,1.44,4.46,2.46,1.35,1.02,2.46,2.31,3.33,3.86.87,1.56,1.3,3.49,1.3,5.8,0,2.53-.47,4.74-1.4,6.63s-2.18,3.45-3.73,4.7c-1.56,1.24-3.38,2.18-5.46,2.8-2.09.62-4.29.93-6.59.93-3.06,0-6.06-.57-8.99-1.7s-5.33-2.81-7.19-5.03l5.99-5.6c1.15,1.6,2.7,2.86,4.63,3.8,1.93.93,3.83,1.4,5.7,1.4.98,0,1.98-.12,3-.37,1.02-.24,1.94-.65,2.76-1.23.82-.58,1.49-1.3,2-2.17.51-.87.77-1.94.77-3.23s-.29-2.28-.87-3.1c-.58-.82-1.36-1.53-2.33-2.13-.98-.6-2.13-1.12-3.46-1.57-1.33-.44-2.73-.91-4.2-1.4-1.42-.44-2.84-.98-4.26-1.6-1.42-.62-2.7-1.44-3.83-2.46-1.13-1.02-2.05-2.28-2.76-3.76-.71-1.49-1.07-3.34-1.07-5.56,0-2.4.5-4.46,1.5-6.19,1-1.73,2.31-3.16,3.93-4.3,1.62-1.13,3.46-1.98,5.53-2.53,2.07-.55,4.16-.83,6.29-.83,2.4,0,4.83.42,7.29,1.27,2.46.84,4.61,2.11,6.43,3.8l-5.46,5.99h0Z"/>
      <path class="st3" d="M140.23,38.59c2.09,0,3.87.37,5.36,1.1,1.49.73,2.71,1.7,3.66,2.9.95,1.2,1.65,2.58,2.1,4.13.44,1.56.67,3.15.67,4.8v19.98h-7.99v-17.59c0-.93-.07-1.9-.2-2.9-.13-1-.41-1.91-.83-2.73s-1.02-1.5-1.8-2.03-1.81-.8-3.1-.8-2.4.24-3.33.73c-.93.49-1.71,1.14-2.33,1.97-.62.82-1.09,1.74-1.4,2.76-.31,1.02-.47,2.07-.47,3.13v17.45h-7.99V21.14h7.99v22.85h.13c.31-.67.77-1.32,1.37-1.97.6-.64,1.3-1.22,2.1-1.73s1.71-.92,2.73-1.23c1.02-.31,2.13-.47,3.33-.47Z"/>
      <path class="st3" d="M157.53,39.52h7.66v5.33h.13c.89-1.87,2.13-3.37,3.73-4.53,1.6-1.15,3.46-1.73,5.6-1.73.31,0,.64,0,1,.03.35.02.67.08.93.17v7.33c-.53-.13-.99-.22-1.37-.27-.38-.04-.74-.07-1.1-.07-1.82,0-3.29.33-4.4,1-1.11.67-1.98,1.47-2.6,2.4-.62.93-1.04,1.89-1.27,2.86-.22.98-.33,1.75-.33,2.33v17.12h-7.99v-31.97h.01Z"/>
      <path class="st3" d="M209.76,55.91v1.07c0,.36-.02.71-.07,1.07h-24.31c.09,1.16.39,2.21.9,3.16.51.96,1.19,1.78,2.03,2.46.84.69,1.8,1.23,2.86,1.63,1.07.4,2.18.6,3.33.6,2,0,3.69-.37,5.06-1.1,1.38-.73,2.51-1.74,3.4-3.03l5.33,4.26c-3.15,4.26-7.73,6.39-13.72,6.39-2.49,0-4.77-.39-6.86-1.17s-3.9-1.88-5.43-3.3c-1.53-1.42-2.73-3.16-3.6-5.23-.87-2.07-1.3-4.41-1.3-7.03s.43-4.92,1.3-7.03c.87-2.11,2.05-3.91,3.56-5.4,1.51-1.49,3.3-2.64,5.36-3.46,2.07-.82,4.3-1.23,6.69-1.23,2.22,0,4.27.37,6.16,1.1,1.89.73,3.52,1.82,4.9,3.26,1.38,1.44,2.45,3.24,3.23,5.4.78,2.15,1.17,4.67,1.17,7.56v.02h.01ZM201.76,52.31c0-1.02-.14-2-.43-2.93-.29-.93-.74-1.75-1.37-2.46-.62-.71-1.41-1.28-2.36-1.7-.96-.42-2.08-.63-3.36-.63-2.4,0-4.43.72-6.1,2.16-1.67,1.44-2.59,3.3-2.76,5.56h16.39-.01Z"/>
      <path class="st3" d="M247.42,71.49h-7.59v-4.8h-.13c-1.11,1.87-2.65,3.29-4.63,4.26-1.98.98-4.1,1.47-6.36,1.47-2.44,0-4.63-.46-6.56-1.37-1.93-.91-3.57-2.13-4.93-3.66-1.36-1.53-2.4-3.33-3.13-5.4-.73-2.07-1.1-4.27-1.1-6.63s.38-4.55,1.13-6.59c.75-2.04,1.82-3.82,3.2-5.33,1.38-1.51,3.02-2.7,4.93-3.56,1.91-.87,4-1.3,6.26-1.3,1.47,0,2.77.17,3.93.5,1.15.33,2.16.74,3.03,1.23.87.49,1.61,1.02,2.23,1.6.62.58,1.13,1.13,1.53,1.67h.2v-22.45h7.99v50.36h0ZM221.1,55.37c0,1.24.19,2.49.57,3.73.38,1.24.94,2.35,1.7,3.33.75.98,1.71,1.78,2.86,2.4s2.51.93,4.06.93c1.47,0,2.77-.3,3.93-.9,1.15-.6,2.14-1.39,2.96-2.36.82-.98,1.44-2.08,1.87-3.3.42-1.22.63-2.45.63-3.7s-.21-2.49-.63-3.73c-.42-1.24-1.04-2.35-1.87-3.33-.82-.98-1.81-1.78-2.96-2.4-1.16-.62-2.46-.93-3.93-.93-1.56,0-2.91.3-4.06.9-1.16.6-2.11,1.39-2.86,2.36-.76.98-1.32,2.08-1.7,3.3-.38,1.22-.57,2.45-.57,3.7Z"/>
      <path class="st3" d="M268.42,58.51h-15.99v-6.79h15.99v6.79Z"/>
      <path class="st3" d="M272.32,28.66c0-1.29.48-2.41,1.43-3.36.95-.95,2.16-1.43,3.63-1.43s2.7.46,3.7,1.37c1,.91,1.5,2.05,1.5,3.43s-.5,2.52-1.5,3.43c-1,.91-2.23,1.37-3.7,1.37s-2.68-.48-3.63-1.43c-.96-.95-1.43-2.08-1.43-3.36v-.02ZM273.45,39.52h7.99v31.97h-7.99v-31.97Z"/>
      <path class="st3" d="M284.89,45.92v-6.39h5.6v-9.26h7.86v9.26h7.99v6.39h-7.99v14.85c0,1.42.26,2.6.77,3.53.51.93,1.65,1.4,3.43,1.4.53,0,1.11-.06,1.73-.17.62-.11,1.18-.28,1.67-.5l.27,6.26c-.71.27-1.56.48-2.53.63-.98.16-1.91.23-2.8.23-2.13,0-3.86-.3-5.2-.9-1.33-.6-2.39-1.42-3.16-2.46-.78-1.04-1.31-2.24-1.6-3.6-.29-1.35-.43-2.81-.43-4.36v-14.92h-5.61Z"/>
    </g>
  </g>
  <g>
    <g>
      <polygon class="st3" points="242.16 87.99 249 116.84 312.92 116.84 306.08 87.99 242.16 87.99"/>
      <polygon class="st4" points="253.04 95.62 258.66 95.62 260.48 104.1 260.54 104.1 263.12 95.62 269.57 95.62 272.1 104.1 272.17 104.1 273.96 95.62 279.17 95.62 275.91 109.19 268.62 109.19 266.15 100.94 266.09 100.94 263.63 109.19 256.27 109.19 253.04 95.62"/>
      <polygon class="st1" points="279.17 95.62 286.51 95.62 288.98 103.88 289.04 103.88 291.5 95.62 298.8 95.62 302.06 109.19 296.84 109.19 295.03 100.72 294.99 100.72 292.44 109.19 285.98 109.19 283.42 100.72 283.35 100.72 281.53 109.19 275.91 109.19 279.17 95.62"/>
    </g>
    <g class="st5">
      <g>
        <path class="st2" d="M303.24,107.61c-.43,0-.78.36-.78.8s.35.8.78.8.78-.36.78-.8-.34-.8-.78-.8M303.24,109.07c-.37,0-.64-.29-.64-.66s.28-.66.64-.66.62.29.62.66-.27.66-.62.66"/>
        <path class="st2" d="M303.37,108.48c.1-.03.15-.1.15-.23,0-.15-.09-.24-.28-.24h-.26v.75h.12v-.28h.11l.19.28h.16l-.21-.3h0ZM303.4,108.24c0,.08-.05.12-.14.12h-.14v-.24h.14c.11,0,.14.06.14.11"/>
      </g>
    </g>
  </g>
  <g>
    <path class="st3" d="M7.69,92.86c.18,0,.37,0,.58.02v1.41h-.55c-.79,0-1.33.19-1.64.56-.3.37-.45.93-.45,1.68v1.01h2.4v1.44h-2.4v8.91h-1.55v-8.91h-1.68v-1.44h1.68v-1.01c0-1.31.32-2.24.95-2.82.63-.58,1.52-.85,2.69-.85h-.03Z"/>
    <path class="st3" d="M17.64,107.9h-1.52v-1.14c-.42.46-.91.82-1.46,1.04-.55.22-1.12.34-1.73.34-.98,0-1.8-.27-2.48-.82-.69-.55-1.03-1.31-1.03-2.34s.35-1.8,1.04-2.34c.69-.55,1.6-.82,2.71-.82.75,0,1.43.1,2.02.27s.88.26.88.24v-1.14c0-.82-.26-1.43-.75-1.84-.5-.4-1.15-.61-1.96-.61-.4,0-.75.06-1.06.19-.3.13-.58.27-.79.42-.21.16-.43.37-.66.64l-1.07-.99c.3-.35.61-.64.91-.85.3-.22.67-.42,1.12-.59s.96-.27,1.54-.27c1.27,0,2.29.32,3.08.98.79.64,1.17,1.67,1.17,3.05v6.59h.03ZM13.04,106.69c.59,0,1.15-.14,1.67-.42s.98-.69,1.38-1.2v-1.31s-.29-.06-.85-.24c-.58-.18-1.22-.26-1.96-.26s-1.33.18-1.72.51c-.38.34-.58.75-.58,1.22,0,.55.19.98.58,1.27.38.29.87.45,1.47.45v-.02Z"/>
    <path class="st3" d="M20.67,94.03c0-.3.11-.58.35-.82.22-.24.51-.35.83-.35s.61.11.83.35.35.5.35.82-.11.61-.35.83c-.24.24-.51.35-.83.35s-.61-.11-.83-.35c-.24-.22-.35-.51-.35-.83ZM22.63,107.9h-1.55v-10.34h1.55v10.34Z"/>
    <path class="st3" d="M29.67,107.94c-.98,0-1.72-.22-2.23-.69-.51-.46-.77-1.25-.77-2.4v-5.87h-1.68v-1.44h1.68v-2.89h1.55v2.89h2.4v1.44h-2.4v5.64c0,.64.1,1.11.3,1.41.21.3.63.46,1.28.46.11,0,.38,0,.82-.02v1.41c-.38.03-.71.05-.98.05h.02Z"/>
    <path class="st3" d="M39.41,102.72c0-.75.11-1.44.35-2.12s.56-1.23.98-1.72c.42-.48.93-.87,1.52-1.15.59-.29,1.25-.43,1.97-.43s1.36.14,1.96.43c.58.29,1.09.69,1.54,1.19v-5.8h1.55v14.78h-1.51v-1.41c-.45.51-.98.93-1.57,1.22s-1.25.43-1.97.43-1.38-.14-1.97-.43-1.11-.67-1.52-1.15c-.42-.48-.75-1.06-.98-1.72-.24-.66-.35-1.36-.35-2.1v-.02ZM41.03,102.72c0,.55.08,1.07.24,1.55s.37.9.67,1.25c.29.35.64.63,1.06.83s.88.3,1.41.3.99-.1,1.41-.3c.42-.21.77-.48,1.07-.83.29-.35.51-.77.67-1.25.16-.48.24-1.01.24-1.55s-.08-1.07-.24-1.55-.38-.9-.67-1.25-.64-.63-1.07-.83c-.42-.21-.9-.3-1.41-.3s-.99.1-1.41.3c-.42.21-.77.48-1.06.83-.29.35-.51.77-.67,1.25-.16.48-.24,1.01-.24,1.55Z"/>
    <path class="st3" d="M53.78,103.21c.06,1.07.42,1.91,1.04,2.53.63.63,1.44.93,2.45.93.61,0,1.15-.13,1.64-.4.48-.27.93-.64,1.31-1.12l1.07.99c-.46.56-1.03,1.04-1.67,1.41-.64.38-1.44.58-2.37.58-.77,0-1.47-.13-2.12-.38-.64-.26-1.17-.63-1.6-1.11-.43-.46-.77-1.04-1.01-1.68-.24-.66-.35-1.38-.35-2.16s.11-1.46.32-2.12c.22-.67.53-1.25.93-1.75.4-.5.9-.9,1.49-1.19s1.27-.43,2-.43c.83,0,1.54.16,2.12.48.58.32,1.06.72,1.41,1.22.35.5.63,1.06.79,1.68.16.63.26,1.22.26,1.81,0,.18,0,.42-.02.72h-7.71l.02-.02ZM56.93,98.77c-.9,0-1.6.29-2.12.88-.51.59-.83,1.31-.96,2.15h6.08c-.06-.9-.35-1.64-.9-2.2-.55-.56-1.25-.85-2.1-.85v.02ZM55.6,95.89l1.92-2.77h2.05l-2.4,2.77h-1.57Z"/>
    <path class="st3" d="M68.54,103.62l-1.54-.35c-.98-.22-1.7-.59-2.18-1.09-.48-.5-.72-1.14-.72-1.89,0-.48.1-.9.3-1.28.21-.37.46-.69.8-.95.34-.26.72-.45,1.15-.58.43-.13.88-.19,1.33-.19.75,0,1.43.14,2.05.45s1.17.71,1.65,1.22l-1.06,1.12c-.24-.26-.58-.55-1.03-.85-.45-.32-1.01-.48-1.72-.48-.58,0-1.04.13-1.39.4-.35.27-.53.63-.53,1.06,0,.37.13.67.37.95.24.26.63.45,1.15.58l1.62.38c.91.21,1.62.56,2.13,1.04s.75,1.11.75,1.88c0,.9-.35,1.65-1.06,2.23s-1.64.88-2.81.88c-.95,0-1.78-.19-2.5-.59-.72-.4-1.28-.85-1.68-1.35l1.04-1.07c.38.48.85.87,1.39,1.15.55.29,1.12.43,1.73.43.72,0,1.28-.14,1.7-.42.42-.29.63-.67.63-1.15,0-.35-.13-.66-.38-.91-.26-.26-.66-.45-1.19-.58l-.03-.03Z"/>
    <path class="st3" d="M73.85,102.72c0-.75.13-1.44.38-2.12.26-.66.63-1.23,1.09-1.72.46-.48,1.01-.87,1.65-1.15s1.33-.43,2.07-.43,1.44.14,2.08.43c.64.29,1.19.67,1.65,1.15.46.48.83,1.06,1.11,1.72.27.66.4,1.36.4,2.12s-.13,1.44-.4,2.1c-.27.66-.64,1.22-1.11,1.72-.46.48-1.01.87-1.65,1.15s-1.33.43-2.08.43-1.44-.14-2.07-.43c-.64-.29-1.19-.67-1.65-1.15-.46-.48-.83-1.06-1.09-1.72-.26-.66-.38-1.36-.38-2.1ZM75.45,102.72c0,1.11.34,2.05,1.01,2.81s1.54,1.14,2.58,1.14,1.92-.38,2.6-1.14,1.01-1.7,1.01-2.81-.34-2.05-1.01-2.81-1.54-1.14-2.6-1.14-1.92.38-2.58,1.14c-.67.75-1.01,1.7-1.01,2.81Z"/>
    <path class="st3" d="M92.52,97.43v1.51c-.14,0-.26-.02-.35-.02-1.22,0-2.08.35-2.63,1.04-.55.69-.82,1.88-.82,3.54v4.41h-1.57v-10.34h1.52v1.38c.46-.58.96-.98,1.49-1.19.53-.22,1.15-.32,1.89-.32h.18s.18,0,.29.02v-.03Z"/>
    <path class="st3" d="M94.83,97.56h1.52v1.25c.27-.38.66-.72,1.19-1.04.53-.3,1.12-.46,1.78-.46.71,0,1.31.14,1.84.45.53.3.93.72,1.25,1.25.37-.55.83-.98,1.39-1.27.56-.29,1.17-.45,1.84-.45,1.38,0,2.39.4,3.03,1.19.64.8.96,1.92.96,3.38v6.01h-1.55v-6.14c0-.98-.21-1.72-.61-2.23s-1.01-.77-1.8-.77c-.85,0-1.51.3-1.97.9-.46.59-.71,1.44-.71,2.55v5.71h-1.55v-6.04c0-1.04-.21-1.81-.61-2.34-.4-.51-.98-.77-1.72-.77-.88,0-1.57.3-2.02.91-.46.61-.69,1.44-.69,2.53v5.71h-1.57v-10.34l-.02.02Z"/>
    <path class="st3" d="M120.6,107.9h-1.52v-1.14c-.42.46-.91.82-1.46,1.04-.55.22-1.12.34-1.73.34-.98,0-1.8-.27-2.48-.82-.69-.55-1.03-1.31-1.03-2.34s.35-1.8,1.04-2.34c.69-.55,1.6-.82,2.71-.82.75,0,1.43.1,2.02.27s.88.26.88.24v-1.14c0-.82-.26-1.43-.75-1.84-.5-.4-1.15-.61-1.96-.61-.4,0-.75.06-1.06.19s-.58.27-.79.42c-.21.16-.43.37-.66.64l-1.07-.99c.3-.35.61-.64.91-.85.3-.22.67-.42,1.12-.59s.96-.27,1.54-.27c1.27,0,2.29.32,3.08.98.79.64,1.17,1.67,1.17,3.05v6.59h.03ZM116,106.69c.59,0,1.15-.14,1.67-.42s.98-.69,1.38-1.2v-1.31s-.29-.06-.85-.24c-.58-.18-1.22-.26-1.96-.26s-1.33.18-1.72.51c-.38.34-.58.75-.58,1.22,0,.55.19.98.58,1.27.38.29.87.45,1.47.45v-.02Z"/>
    <path class="st3" d="M123.63,94.03c0-.3.11-.58.35-.82.22-.24.51-.35.83-.35s.61.11.83.35.35.5.35.82-.11.61-.35.83c-.24.24-.51.35-.83.35s-.61-.11-.83-.35c-.24-.22-.35-.51-.35-.83ZM125.59,107.9h-1.55v-10.34h1.55v10.34Z"/>
    <path class="st3" d="M133.49,103.62l-1.54-.35c-.98-.22-1.7-.59-2.18-1.09-.48-.5-.72-1.14-.72-1.89,0-.48.1-.9.3-1.28.21-.37.46-.69.8-.95.34-.26.72-.45,1.15-.58s.88-.19,1.33-.19c.74,0,1.43.14,2.05.45.63.3,1.17.71,1.65,1.22l-1.06,1.12c-.24-.26-.58-.55-1.03-.85-.45-.32-1.01-.48-1.72-.48-.58,0-1.04.13-1.39.4-.35.27-.53.63-.53,1.06,0,.37.13.67.37.95.24.26.63.45,1.15.58l1.62.38c.91.21,1.62.56,2.13,1.04.51.48.75,1.11.75,1.88,0,.9-.35,1.65-1.06,2.23-.71.58-1.64.88-2.81.88-.95,0-1.78-.19-2.5-.59s-1.28-.85-1.68-1.35l1.04-1.07c.38.48.85.87,1.39,1.15.55.29,1.12.43,1.73.43.72,0,1.28-.14,1.7-.42.42-.29.63-.67.63-1.15,0-.35-.13-.66-.38-.91-.26-.26-.66-.45-1.19-.58l-.03-.03Z"/>
    <path class="st3" d="M155.85,102.72c0,.75-.11,1.44-.35,2.1-.24.66-.56,1.22-.98,1.72-.42.48-.93.87-1.52,1.15-.59.29-1.25.43-1.96.43s-1.36-.14-1.96-.42c-.58-.29-1.09-.67-1.54-1.19v5.47h-1.55v-14.44h1.52v1.41c.43-.53.95-.93,1.55-1.22.59-.29,1.25-.45,1.97-.45s1.38.14,1.96.43c.59.29,1.11.67,1.52,1.15.42.48.75,1.06.98,1.72.22.66.35,1.36.35,2.12v.02ZM154.25,102.72c0-.55-.08-1.07-.22-1.55-.16-.48-.37-.9-.66-1.25-.29-.35-.64-.63-1.06-.83s-.9-.3-1.41-.3-.99.1-1.41.3-.79.48-1.07.83c-.29.35-.51.77-.67,1.25-.16.48-.24,1.01-.24,1.55s.08,1.07.24,1.55c.16.48.37.9.67,1.25.29.35.64.63,1.07.83.42.21.9.3,1.41.3s.99-.1,1.41-.3.77-.48,1.06-.83c.27-.35.5-.77.66-1.25.16-.48.22-1.01.22-1.55Z"/>
    <path class="st3" d="M166.16,107.9h-1.52v-1.14c-.42.46-.91.82-1.46,1.04-.55.22-1.12.34-1.73.34-.98,0-1.8-.27-2.48-.82-.69-.55-1.03-1.31-1.03-2.34s.35-1.8,1.04-2.34,1.6-.82,2.71-.82c.75,0,1.43.1,2.02.27.59.18.88.26.88.24v-1.14c0-.82-.26-1.43-.75-1.84-.5-.4-1.15-.61-1.96-.61-.4,0-.74.06-1.06.19-.3.13-.58.27-.79.42s-.43.37-.66.64l-1.07-.99c.3-.35.61-.64.91-.85.3-.22.67-.42,1.14-.59s.96-.27,1.54-.27c1.27,0,2.29.32,3.08.98.79.64,1.17,1.67,1.17,3.05v6.59h.02ZM161.55,106.69c.59,0,1.15-.14,1.67-.42.51-.27.98-.69,1.38-1.2v-1.31s-.29-.06-.85-.24c-.58-.18-1.22-.26-1.96-.26s-1.33.18-1.72.51-.58.75-.58,1.22c0,.55.19.98.58,1.27s.87.45,1.47.45v-.02Z"/>
    <path class="st3" d="M174.77,97.43v1.51c-.14,0-.26-.02-.35-.02-1.22,0-2.08.35-2.63,1.04s-.82,1.88-.82,3.54v4.41h-1.55v-10.34h1.52v1.38c.46-.58.96-.98,1.49-1.19.53-.22,1.15-.32,1.89-.32h.18s.18,0,.29.02l-.02-.03Z"/>
    <path class="st3" d="M180.88,107.94c-.98,0-1.72-.22-2.23-.69-.51-.46-.77-1.25-.77-2.4v-5.87h-1.68v-1.44h1.68v-2.89h1.57v2.89h2.4v1.44h-2.4v5.64c0,.64.1,1.11.3,1.41.21.3.63.46,1.28.46.11,0,.38,0,.82-.02v1.41c-.38.03-.71.05-.98.05h0Z"/>
    <path class="st3" d="M184.37,94.03c0-.3.11-.58.35-.82s.51-.35.83-.35.61.11.83.35.35.5.35.82-.11.61-.35.83c-.22.24-.51.35-.83.35s-.61-.11-.83-.35c-.22-.22-.35-.51-.35-.83ZM186.34,107.9h-1.55v-10.34h1.55v10.34Z"/>
    <path class="st3" d="M191.01,103.21c.06,1.07.42,1.91,1.04,2.53.63.63,1.44.93,2.45.93.61,0,1.15-.13,1.64-.4.48-.27.93-.64,1.31-1.12l1.07.99c-.46.56-1.03,1.04-1.67,1.41-.64.38-1.44.58-2.36.58-.77,0-1.47-.13-2.12-.38-.64-.26-1.17-.63-1.6-1.11-.43-.46-.77-1.04-1.01-1.68-.24-.66-.35-1.38-.35-2.16s.11-1.46.32-2.12c.22-.67.53-1.25.93-1.75s.9-.9,1.49-1.19c.59-.29,1.27-.43,2-.43.83,0,1.54.16,2.12.48.58.32,1.06.72,1.41,1.22.35.5.63,1.06.79,1.68s.26,1.22.26,1.81c0,.18,0,.42-.02.72h-7.71v-.02ZM194.15,98.77c-.9,0-1.6.29-2.12.88-.51.59-.83,1.31-.96,2.15h6.08c-.06-.9-.35-1.64-.9-2.2-.55-.56-1.25-.85-2.1-.85v.02Z"/>
    <path class="st3" d="M207.65,102.72c0-.75.11-1.44.35-2.12.24-.66.56-1.23.98-1.72.42-.48.93-.87,1.52-1.15s1.25-.43,1.96-.43,1.36.14,1.96.43c.58.29,1.09.69,1.54,1.19v-5.8h1.55v14.78h-1.51v-1.41c-.45.51-.98.93-1.57,1.22s-1.25.43-1.97.43-1.38-.14-1.96-.43c-.59-.29-1.11-.67-1.52-1.15-.42-.48-.75-1.06-.98-1.72-.22-.66-.35-1.36-.35-2.1v-.02ZM209.25,102.72c0,.55.08,1.07.22,1.55.16.48.38.9.67,1.25s.64.63,1.06.83c.42.21.88.3,1.41.3s.99-.1,1.41-.3.79-.48,1.07-.83c.29-.35.51-.77.67-1.25.16-.48.24-1.01.24-1.55s-.08-1.07-.24-1.55c-.16-.48-.38-.9-.67-1.25s-.64-.63-1.07-.83c-.42-.21-.9-.3-1.41-.3s-.99.1-1.41.3c-.42.21-.77.48-1.06.83-.29.35-.51.77-.67,1.25-.16.48-.22,1.01-.22,1.55Z"/>
    <path class="st3" d="M222.01,103.21c.06,1.07.42,1.91,1.04,2.53.63.63,1.44.93,2.45.93.61,0,1.15-.13,1.64-.4.48-.27.93-.64,1.31-1.12l1.07.99c-.46.56-1.03,1.04-1.67,1.41-.64.38-1.44.58-2.36.58-.77,0-1.47-.13-2.12-.38-.64-.26-1.17-.63-1.6-1.11-.43-.46-.77-1.04-1.01-1.68-.24-.66-.35-1.38-.35-2.16s.11-1.46.32-2.12c.22-.67.53-1.25.93-1.75s.9-.9,1.49-1.19c.59-.29,1.27-.43,2-.43.83,0,1.54.16,2.12.48.58.32,1.06.72,1.41,1.22.35.5.63,1.06.79,1.68s.26,1.22.26,1.81c0,.18,0,.42-.02.72h-7.71v-.02ZM225.15,98.77c-.9,0-1.6.29-2.12.88-.51.59-.83,1.31-.96,2.15h6.08c-.06-.9-.35-1.64-.9-2.2-.55-.56-1.25-.85-2.1-.85v.02Z"/>
  </g>
</svg>