<?xml version="1.0" encoding="utf-8"?>
<!-- Generator: Adobe Illustrator 25.3.1, SVG Export Plug-In . SVG Version: 6.00 Build 0)  -->
<svg version="1.1" id="Layer_1" xmlns="http://www.w3.org/2000/svg" xmlns:xlink="http://www.w3.org/1999/xlink" x="0px" y="0px"
	 viewBox="0 0 322.8 119" style="enable-background:new 0 0 322.8 119;" xml:space="preserve">
<style type="text/css">
	.st0{fill:#FFFFFF;}
</style>
<g>
	<g>
		<g>
			<polygon class="st0" points="23.5,7.9 23.5,11 61.9,34.6 64.4,33 			"/>
			<polygon class="st0" points="2.8,3 2.8,6.2 59.8,41.2 62.3,39.6 			"/>
		</g>
		<g>
			<polygon class="st0" points="23.5,23.8 23.5,27 61.9,50.5 64.4,49 			"/>
			<polygon class="st0" points="2.8,19 2.8,22.1 59.8,57.2 62.3,55.6 			"/>
		</g>
		<polygon class="st0" points="23.5,39.4 23.5,42.5 61.9,66.1 64.4,64.5 		"/>
		<polygon class="st0" points="2.8,34.6 2.8,37.7 59.8,72.7 62.3,71.2 		"/>
	</g>
	<g>
		<path class="st0" d="M310.1,36.2c0-0.7,0.1-1.4,0.4-2s0.6-1.2,1.1-1.6c0.5-0.5,1-0.8,1.6-1.1s1.3-0.4,2-0.4s1.4,0.1,2,0.4
			s1.2,0.6,1.6,1.1c0.5,0.5,0.8,1,1.1,1.6c0.3,0.6,0.4,1.3,0.4,2s-0.1,1.4-0.4,2s-0.6,1.1-1.1,1.6s-1,0.8-1.6,1.1s-1.3,0.4-2,0.4
			s-1.4-0.1-2-0.4c-0.6-0.3-1.2-0.6-1.6-1.1c-0.5-0.5-0.8-1-1.1-1.6C310.2,37.6,310.1,36.9,310.1,36.2z M310.9,36.2
			c0,0.6,0.1,1.1,0.3,1.7c0.2,0.5,0.5,1,0.9,1.4s0.8,0.7,1.4,0.9c0.5,0.2,1.1,0.3,1.7,0.3s1.2-0.1,1.7-0.3s1-0.5,1.4-0.9
			s0.7-0.9,0.9-1.4c0.2-0.5,0.3-1.1,0.3-1.7c0-0.6-0.1-1.2-0.3-1.7c-0.2-0.5-0.5-1-0.9-1.4s-0.8-0.7-1.4-0.9
			c-0.5-0.2-1.1-0.3-1.7-0.3s-1.2,0.1-1.7,0.3s-1,0.5-1.4,0.9s-0.7,0.8-0.9,1.4C311,35,310.9,35.6,310.9,36.2z M313.2,33.3h2
			c0.3,0,0.5,0,0.8,0.1s0.5,0.2,0.7,0.3s0.4,0.3,0.5,0.5s0.2,0.5,0.2,0.8c0,0.4-0.1,0.8-0.4,1c-0.2,0.3-0.6,0.4-1,0.5l1.5,2.5h-1.3
			l-1.3-2.4h-0.7V39h-1L313.2,33.3L313.2,33.3z M315.1,35.8c0.3,0,0.6-0.1,0.8-0.2c0.3-0.1,0.4-0.3,0.4-0.7c0-0.3-0.1-0.5-0.4-0.6
			c-0.2-0.1-0.5-0.2-0.8-0.2h-0.9v1.7H315.1z"/>
		<path class="st0" d="M110.3,35.1c-0.9-1.2-2.1-2.1-3.8-2.9c-1.6-0.8-3.3-1.2-4.9-1.2c-1,0-2,0.1-2.9,0.4c-1,0.2-1.9,0.6-2.7,1.1
			c-0.8,0.5-1.5,1.2-2,2s-0.8,1.8-0.8,3c0,1.1,0.2,2,0.7,2.7c0.4,0.8,1.1,1.4,1.8,1.9c0.8,0.5,1.7,1,2.8,1.4
			c1.1,0.4,2.3,0.8,3.7,1.2c1.5,0.5,3.1,1,4.7,1.7c1.6,0.6,3.1,1.4,4.5,2.5c1.4,1,2.5,2.3,3.3,3.9c0.9,1.6,1.3,3.5,1.3,5.8
			c0,2.5-0.5,4.7-1.4,6.6s-2.2,3.5-3.7,4.7c-1.6,1.2-3.4,2.2-5.5,2.8c-2.1,0.6-4.3,0.9-6.6,0.9c-3.1,0-6.1-0.6-9-1.7s-5.3-2.8-7.2-5
			l6-5.6c1.2,1.6,2.7,2.9,4.6,3.8s3.8,1.4,5.7,1.4c1,0,2-0.1,3-0.4c1-0.2,1.9-0.7,2.8-1.2c0.8-0.6,1.5-1.3,2-2.2
			c0.5-0.9,0.8-1.9,0.8-3.2c0-1.2-0.3-2.3-0.9-3.1c-0.6-0.8-1.4-1.5-2.3-2.1c-1-0.6-2.1-1.1-3.5-1.6c-1.3-0.4-2.7-0.9-4.2-1.4
			c-1.4-0.4-2.8-1-4.3-1.6c-1.4-0.6-2.7-1.4-3.8-2.5c-1.1-1-2.1-2.3-2.8-3.8c-0.7-1.5-1.1-3.3-1.1-5.6c0-2.4,0.5-4.5,1.5-6.2
			s2.3-3.2,3.9-4.3s3.5-2,5.5-2.5c2.1-0.6,4.2-0.8,6.3-0.8c2.4,0,4.8,0.4,7.3,1.3c2.5,0.8,4.6,2.1,6.4,3.8L110.3,35.1z"/>
		<path class="st0" d="M140.2,39.5c2.1,0,3.9,0.4,5.4,1.1c1.5,0.7,2.7,1.7,3.7,2.9s1.7,2.6,2.1,4.1c0.4,1.6,0.7,3.2,0.7,4.8v20h-8
			V54.8c0-0.9-0.1-1.9-0.2-2.9c-0.1-1-0.4-1.9-0.8-2.7c-0.4-0.8-1-1.5-1.8-2s-1.8-0.8-3.1-0.8s-2.4,0.2-3.3,0.7
			c-0.9,0.5-1.7,1.1-2.3,2c-0.6,0.8-1.1,1.7-1.4,2.8c-0.3,1-0.5,2.1-0.5,3.1v17.5h-8V22h8v22.8h0.1c0.3-0.7,0.8-1.3,1.4-2
			c0.6-0.6,1.3-1.2,2.1-1.7s1.7-0.9,2.7-1.2C137.8,39.6,139,39.5,140.2,39.5z"/>
		<path class="st0" d="M157.4,40.4h7.7v5.3h0.1c0.9-1.9,2.1-3.4,3.7-4.5c1.6-1.2,3.5-1.7,5.6-1.7c0.3,0,0.6,0,1,0s0.7,0.1,0.9,0.2
			V47c-0.5-0.1-1-0.2-1.4-0.3c-0.4,0-0.7-0.1-1.1-0.1c-1.8,0-3.3,0.3-4.4,1c-1.1,0.7-2,1.5-2.6,2.4s-1,1.9-1.3,2.9
			c-0.2,1-0.3,1.8-0.3,2.3v17.1h-8V40.4H157.4z"/>
		<path class="st0" d="M209.7,56.8c0,0.4,0,0.7,0,1.1s0,0.7-0.1,1.1h-24.3c0.1,1.2,0.4,2.2,0.9,3.2s1.2,1.8,2,2.5s1.8,1.2,2.9,1.6
			c1.1,0.4,2.2,0.6,3.3,0.6c2,0,3.7-0.4,5.1-1.1c1.4-0.7,2.5-1.7,3.4-3l5.3,4.3c-3.2,4.3-7.7,6.4-13.7,6.4c-2.5,0-4.8-0.4-6.9-1.2
			c-2.1-0.8-3.9-1.9-5.4-3.3s-2.7-3.2-3.6-5.2c-0.9-2.1-1.3-4.4-1.3-7s0.4-4.9,1.3-7c0.9-2.1,2.1-3.9,3.6-5.4s3.3-2.6,5.4-3.5
			c2.1-0.8,4.3-1.2,6.7-1.2c2.2,0,4.3,0.4,6.2,1.1c1.9,0.7,3.5,1.8,4.9,3.3c1.4,1.4,2.5,3.2,3.2,5.4
			C209.3,51.4,209.7,53.9,209.7,56.8z M201.7,53.2c0-1-0.1-2-0.4-2.9c-0.3-0.9-0.7-1.8-1.4-2.5c-0.6-0.7-1.4-1.3-2.4-1.7
			c-1-0.4-2.1-0.6-3.4-0.6c-2.4,0-4.4,0.7-6.1,2.2c-1.7,1.4-2.6,3.3-2.8,5.6L201.7,53.2L201.7,53.2z"/>
		<path class="st0" d="M247.3,72.4h-7.6v-4.8h-0.1c-1.1,1.9-2.7,3.3-4.6,4.3c-2,1-4.1,1.5-6.4,1.5c-2.4,0-4.6-0.5-6.6-1.4
			c-1.9-0.9-3.6-2.1-4.9-3.7c-1.4-1.5-2.4-3.3-3.1-5.4c-0.7-2.1-1.1-4.3-1.1-6.6c0-2.4,0.4-4.6,1.1-6.6c0.8-2,1.8-3.8,3.2-5.3
			s3-2.7,4.9-3.6c1.9-0.9,4-1.3,6.3-1.3c1.5,0,2.8,0.2,3.9,0.5c1.2,0.3,2.2,0.7,3,1.2c0.9,0.5,1.6,1,2.2,1.6s1.1,1.1,1.5,1.7h0.2V22
			h8v50.4H247.3z M221,56.3c0,1.2,0.2,2.5,0.6,3.7c0.4,1.2,0.9,2.4,1.7,3.3c0.8,1,1.7,1.8,2.9,2.4s2.5,0.9,4.1,0.9
			c1.5,0,2.8-0.3,3.9-0.9c1.2-0.6,2.1-1.4,3-2.4c0.8-1,1.4-2.1,1.9-3.3c0.4-1.2,0.6-2.5,0.6-3.7s-0.2-2.5-0.6-3.7s-1-2.4-1.9-3.3
			c-0.8-1-1.8-1.8-3-2.4s-2.5-0.9-3.9-0.9c-1.6,0-2.9,0.3-4.1,0.9c-1.2,0.6-2.1,1.4-2.9,2.4c-0.8,1-1.3,2.1-1.7,3.3
			C221.2,53.8,221,55,221,56.3z"/>
		<path class="st0" d="M268.3,59.4h-16v-6.8h16V59.4z"/>
		<path class="st0" d="M272.2,29.6c0-1.3,0.5-2.4,1.4-3.4c1-1,2.2-1.4,3.6-1.4s2.7,0.5,3.7,1.4s1.5,2.1,1.5,3.4
			c0,1.4-0.5,2.5-1.5,3.4s-2.2,1.4-3.7,1.4s-2.7-0.5-3.6-1.4C272.7,32,272.2,30.8,272.2,29.6z M273.3,40.4h8v32h-8V40.4z"/>
		<path class="st0" d="M284.8,46.8v-6.4h5.6v-9.3h7.9v9.3h8v6.4h-8v14.9c0,1.4,0.3,2.6,0.8,3.5s1.7,1.4,3.4,1.4
			c0.5,0,1.1-0.1,1.7-0.2s1.2-0.3,1.7-0.5l0.3,6.3c-0.7,0.3-1.6,0.5-2.5,0.6c-1,0.2-1.9,0.2-2.8,0.2c-2.1,0-3.9-0.3-5.2-0.9
			c-1.3-0.6-2.4-1.4-3.2-2.5c-0.8-1-1.3-2.2-1.6-3.6c-0.3-1.4-0.4-2.8-0.4-4.4V46.8H284.8z"/>
	</g>
</g>
<g>
	<path class="st0" d="M81.8,111.1H80l7.2-16.6h1.6l7.1,16.6H94l-1.8-4.4h-8.5L81.8,111.1z M84.3,105.2h7.3l-3.7-8.8L84.3,105.2z"/>
	<path class="st0" d="M111.8,97.2c-0.7-1-1.9-1.7-3.4-1.7c-1.6,0-3.5,1-3.5,3.1s1.8,2.6,3.6,3.3c2.3,0.8,4.9,1.5,4.9,4.8
		s-2.8,4.8-5.4,4.8c-2,0-4-0.8-5.2-2.5l1.5-1.1c0.7,1.2,2.1,2.1,3.8,2.1s3.7-1.1,3.7-3.2c0-2.3-1.9-2.9-4.1-3.6
		c-2.2-0.7-4.4-1.6-4.4-4.6c0-3.2,2.9-4.6,5.3-4.6c2.2,0,3.9,0.9,4.7,2L111.8,97.2z"/>
	<path class="st0" d="M121.7,101.5h-3.1v6.4c0,1.6,0.7,2,1.6,2c0.4,0,1-0.1,1.4-0.4l0.1,1.4c-0.6,0.2-1.1,0.3-1.9,0.3
		c-1.2,0-2.8-0.5-2.8-2.9v-6.8h-2.3v-1.3h2.3v-3.1h1.6v3.1h3.1L121.7,101.5L121.7,101.5z"/>
	<path class="st0" d="M134.1,106.1H125c0,2.2,1.8,4,4,4c1.6,0,2.9-0.9,3.5-1.9l1.2,0.9c-1.3,1.6-2.9,2.3-4.7,2.3
		c-3.3,0-5.7-2.5-5.7-5.8s2.4-5.8,5.5-5.8c3.4,0,5.2,2.4,5.2,5.4C134.2,105.5,134.2,105.8,134.1,106.1z M132.6,104.8
		c-0.1-2.1-1.4-3.6-3.6-3.6c-2.1,0-3.7,1.7-3.8,3.6H132.6z"/>
	<path class="st0" d="M137.5,100.2h1.5c0,0.6,0.1,1.4,0.1,1.9l0,0c0.6-1.3,2-2.2,3.5-2.2c0.4,0,0.7,0,1.1,0.1l-0.2,1.5
		c-0.2-0.1-0.7-0.1-1.1-0.1c-1.7,0-3.2,1.2-3.2,4.1v5.6h-1.6v-8.5C137.6,102,137.6,100.9,137.5,100.2z"/>
	<path class="st0" d="M146.8,97.1c-0.6,0-1.1-0.5-1.1-1.1c0-0.7,0.6-1.1,1.1-1.1c0.6,0,1.1,0.5,1.1,1.1
		C148,96.6,147.4,97.1,146.8,97.1z M147.6,111.1H146v-11h1.6V111.1z"/>
	<path class="st0" d="M159.8,102.7c-0.5-0.8-1.6-1.5-2.8-1.5c-2.6,0-4.2,1.9-4.2,4.4s1.6,4.4,4.2,4.4c1.4,0,2.3-0.6,3-1.4l1.2,0.9
		c-0.9,1.1-2.3,1.9-4.2,1.9c-3.5,0-5.9-2.5-5.9-5.8s2.3-5.8,5.9-5.8c1.5,0,3.1,0.6,4.1,1.9L159.8,102.7z"/>
	<path class="st0" d="M167.4,109.4L167.4,109.4l3.4-9.3h1.7l-5.5,13.8c-0.7,1.7-1.5,2.8-3.4,2.8c-0.5,0-1,0-1.4-0.1l0.2-1.5
		c0.4,0.1,0.7,0.2,1.2,0.2c1.1,0,1.6-0.7,2.1-1.9l0.9-2.3l-4.7-10.9h1.8L167.4,109.4z"/>
	<path class="st0" d="M182.9,102.7c-0.5-0.8-1.6-1.5-2.8-1.5c-2.6,0-4.2,1.9-4.2,4.4s1.6,4.4,4.2,4.4c1.4,0,2.3-0.6,3-1.4l1.2,0.9
		c-0.9,1.1-2.3,1.9-4.2,1.9c-3.5,0-5.9-2.5-5.9-5.8s2.3-5.8,5.9-5.8c1.5,0,3.1,0.6,4.1,1.9L182.9,102.7z"/>
	<path class="st0" d="M188.4,111.1h-1.6V93.4h1.6V111.1z"/>
	<path class="st0" d="M202.6,106.1h-9.1c0,2.2,1.8,4,4,4c1.6,0,2.9-0.9,3.5-1.9l1.2,0.9c-1.3,1.6-2.9,2.3-4.7,2.3
		c-3.2,0-5.7-2.5-5.7-5.8s2.4-5.8,5.5-5.8c3.4,0,5.2,2.4,5.2,5.4C202.6,105.5,202.6,105.8,202.6,106.1z M201,104.8
		c-0.1-2.1-1.4-3.6-3.6-3.6c-2.1,0-3.7,1.7-3.8,3.6H201z"/>
	<path class="st0" d="M230.1,97.2c-0.7-1-1.9-1.7-3.4-1.7c-1.6,0-3.5,1-3.5,3.1s1.8,2.6,3.6,3.3c2.3,0.8,4.9,1.5,4.9,4.8
		s-2.8,4.8-5.4,4.8c-2,0-4-0.8-5.2-2.5l1.5-1.1c0.7,1.2,2.1,2.1,3.8,2.1s3.7-1.1,3.7-3.2c0-2.3-1.9-2.9-4.1-3.6
		c-2.2-0.7-4.4-1.6-4.4-4.6c0-3.2,2.9-4.6,5.3-4.6c2.2,0,3.9,0.9,4.7,2L230.1,97.2z"/>
	<path class="st0" d="M240.2,111.4c-3.4,0-5.8-2.5-5.8-5.8s2.4-5.8,5.8-5.8c3.4,0,5.9,2.5,5.9,5.8
		C246.1,109,243.7,111.4,240.2,111.4z M240.2,101.2c-2.5,0-4.1,2-4.1,4.4c0,2.5,1.6,4.4,4.1,4.4c2.6,0,4.2-1.9,4.2-4.4
		C244.4,103.2,242.8,101.2,240.2,101.2z"/>
	<path class="st0" d="M251.2,111.1h-1.6V93.4h1.6V111.1z"/>
	<path class="st0" d="M263.4,111.1c0-0.6-0.1-1.4-0.1-1.9l0,0c-0.6,1.3-2.2,2.2-3.7,2.2c-2.8,0-4.2-1.8-4.2-4.5v-6.7h1.6v6.1
		c0,2.3,0.7,3.8,3,3.8c1.7,0,3.3-1.4,3.3-4.3v-5.6h1.6v8.5c0,0.6,0,1.7,0.1,2.4L263.4,111.1L263.4,111.1z"/>
	<path class="st0" d="M274,101.5h-3.1v6.4c0,1.6,0.7,2,1.6,2c0.4,0,1-0.1,1.4-0.4l0.1,1.4c-0.6,0.2-1.1,0.3-1.9,0.3
		c-1.2,0-2.8-0.5-2.8-2.9v-6.8H267v-1.3h2.3v-3.1h1.6v3.1h3.1L274,101.5L274,101.5z"/>
	<path class="st0" d="M277.3,97.1c-0.6,0-1.1-0.5-1.1-1.1c0-0.7,0.6-1.1,1.1-1.1c0.6,0,1.1,0.5,1.1,1.1S277.8,97.1,277.3,97.1z
		 M278.1,111.1h-1.6v-11h1.6V111.1z"/>
	<path class="st0" d="M287.3,111.4c-3.4,0-5.8-2.5-5.8-5.8s2.4-5.8,5.8-5.8s5.9,2.5,5.9,5.8C293.2,109,290.8,111.4,287.3,111.4z
		 M287.3,101.2c-2.5,0-4.1,2-4.1,4.4c0,2.5,1.6,4.4,4.1,4.4c2.6,0,4.2-1.9,4.2-4.4C291.5,103.2,289.9,101.2,287.3,101.2z"/>
	<path class="st0" d="M298,100.2c0,0.6,0.1,1.4,0.1,1.9l0,0c0.6-1.3,2.2-2.2,3.7-2.2c2.8,0,4.2,1.8,4.2,4.5v6.7h-1.6V105
		c0-2.3-0.7-3.8-3-3.8c-1.7,0-3.3,1.4-3.3,4.3v5.6h-1.6v-8.5c0-0.6,0-1.7-0.1-2.4H298z"/>
	<g>
		<path class="st0" d="M210.2,95.2c0,1.9-1.5,3.4-3.4,3.4s-3.4-1.5-3.4-3.4c0-1.8,1.5-3.3,3.4-3.3S210.2,93.4,210.2,95.2z
			 M204.2,95.2c0,1.5,1.1,2.7,2.6,2.7s2.5-1.2,2.5-2.6c0-1.5-1.1-2.7-2.5-2.7C205.3,92.6,204.2,93.8,204.2,95.2z M206.3,97h-0.8
			v-3.3c0.3-0.1,0.7-0.1,1.3-0.1s0.9,0.1,1.2,0.2c0.2,0.1,0.3,0.4,0.3,0.7c0,0.4-0.3,0.6-0.7,0.8l0,0c0.3,0.1,0.5,0.4,0.6,0.8
			c0.1,0.5,0.2,0.7,0.2,0.8h-0.8c-0.1-0.1-0.2-0.4-0.3-0.8s-0.3-0.5-0.7-0.5h-0.4L206.3,97L206.3,97z M206.3,95.1h0.4
			c0.4,0,0.8-0.1,0.8-0.5c0-0.3-0.2-0.5-0.7-0.5c-0.2,0-0.3,0-0.4,0v1H206.3z"/>
	</g>
</g>
</svg>
