<svg id="Layer_1" data-name="Layer 1" xmlns="http://www.w3.org/2000/svg" viewBox="0 0 381 84.64"><defs><style>.cls-1{fill:#fff;}</style></defs><polygon class="cls-1" points="24.89 5.77 24.89 9.55 70.93 37.83 74.01 35.94 24.89 5.77"/><polygon class="cls-1" points="0 0 0 3.78 68.41 45.8 71.49 43.91 0 0"/><polygon class="cls-1" points="24.89 24.91 24.89 28.68 70.93 56.97 74.01 55.08 24.89 24.91"/><polygon class="cls-1" points="0 19.14 0 22.92 68.41 64.94 71.49 63.05 0 19.14"/><polygon class="cls-1" points="24.89 43.6 24.89 47.38 70.93 75.66 74.01 73.77 24.89 43.6"/><polygon class="cls-1" points="0 37.83 0 41.61 68.41 83.63 71.49 81.74 0 37.83"/><path class="cls-1" d="M380.78,51.46a5.91,5.91,0,0,1,.48-2.37,5.81,5.81,0,0,1,1.32-1.93,6.18,6.18,0,0,1,1.94-1.3,6,6,0,0,1,4.74,0,6.18,6.18,0,0,1,1.94,1.3,5.81,5.81,0,0,1,1.32,1.93,5.91,5.91,0,0,1,.48,2.37,5.78,5.78,0,0,1-.48,2.35,5.88,5.88,0,0,1-1.32,1.92A6.15,6.15,0,0,1,389.26,57a6.21,6.21,0,0,1-4.74,0,6.15,6.15,0,0,1-1.94-1.29,5.88,5.88,0,0,1-1.32-1.92A5.78,5.78,0,0,1,380.78,51.46Zm1,0a5,5,0,0,0,.4,2,5.13,5.13,0,0,0,1.1,1.65,5.18,5.18,0,0,0,5.65,1.11,5.12,5.12,0,0,0,1.63-1.11,5.3,5.3,0,0,0,1.1-1.65,5.17,5.17,0,0,0,0-4,5.14,5.14,0,0,0-1.1-1.64,5.09,5.09,0,0,0-3.64-1.5,5.09,5.09,0,0,0-3.64,1.5,5.14,5.14,0,0,0-1.5,3.65ZM384.51,48h2.41a4.08,4.08,0,0,1,.93.11,2.24,2.24,0,0,1,.82.35,1.69,1.69,0,0,1,.79,1.55,1.72,1.72,0,0,1-.43,1.22,2.16,2.16,0,0,1-1.15.63l1.85,3h-1.5L386.62,52h-.88v2.87h-1.23Zm2.22,3a2.69,2.69,0,0,0,1-.2.8.8,0,0,0,.48-.82.75.75,0,0,0-.44-.75,2.48,2.48,0,0,0-.93-.18h-1.12v2Z" transform="translate(-12 -11.68)"/><path class="cls-1" d="M141,50.12a12.25,12.25,0,0,0-4.52-3.47,13.48,13.48,0,0,0-5.87-1.4,14.63,14.63,0,0,0-3.52.44,10.51,10.51,0,0,0-3.2,1.36,7.56,7.56,0,0,0-2.35,2.39A6.58,6.58,0,0,0,120.6,53a6.3,6.3,0,0,0,.8,3.28,7.31,7.31,0,0,0,2.19,2.32,15.17,15.17,0,0,0,3.4,1.67c1.33.48,2.8,1,4.4,1.44,1.81.59,3.69,1.25,5.63,2a21.85,21.85,0,0,1,5.36,3,14.69,14.69,0,0,1,4,4.63,14.16,14.16,0,0,1,1.56,7,17.76,17.76,0,0,1-1.68,7.95,16.47,16.47,0,0,1-4.47,5.63,19.22,19.22,0,0,1-6.56,3.36,27.75,27.75,0,0,1-7.91,1.12,29.68,29.68,0,0,1-10.79-2,20.93,20.93,0,0,1-8.63-6l7.19-6.72a14.48,14.48,0,0,0,5.56,4.56,14.8,14.8,0,0,0,10.43,1.24,9.74,9.74,0,0,0,3.31-1.48,8.17,8.17,0,0,0,2.4-2.6,7.54,7.54,0,0,0,.92-3.87,6.33,6.33,0,0,0-1-3.72,9.14,9.14,0,0,0-2.8-2.56,20.28,20.28,0,0,0-4.15-1.88l-5-1.68a50.46,50.46,0,0,1-5.11-1.91,16.93,16.93,0,0,1-4.6-3,14.38,14.38,0,0,1-3.31-4.52,15.29,15.29,0,0,1-1.28-6.67,14.6,14.6,0,0,1,1.8-7.43,16,16,0,0,1,4.71-5.16,20.92,20.92,0,0,1,6.63-3,28.86,28.86,0,0,1,7.56-1,26.74,26.74,0,0,1,8.75,1.52,21.33,21.33,0,0,1,7.71,4.55Z" transform="translate(-12 -11.68)"/><path class="cls-1" d="M176.86,55.4a14.4,14.4,0,0,1,6.43,1.32,12.79,12.79,0,0,1,4.4,3.47,14.1,14.1,0,0,1,2.52,5,20.9,20.9,0,0,1,.8,5.75v24h-9.59V73.78a26.34,26.34,0,0,0-.24-3.48,10.07,10.07,0,0,0-1-3.27A6.58,6.58,0,0,0,178,64.59a6.45,6.45,0,0,0-3.72-1,8.45,8.45,0,0,0-4,.88,8.31,8.31,0,0,0-2.8,2.36,10.35,10.35,0,0,0-1.68,3.31,13,13,0,0,0-.56,3.76V94.88h-9.59V34.46h9.59V61.87h.16a9.25,9.25,0,0,1,1.64-2.36,12.89,12.89,0,0,1,2.52-2.07A13.23,13.23,0,0,1,172.86,56,13.81,13.81,0,0,1,176.86,55.4Z" transform="translate(-12 -11.68)"/><path class="cls-1" d="M197.6,56.52h9.19v6.39H207a14,14,0,0,1,4.48-5.43,11.14,11.14,0,0,1,6.71-2.08c.37,0,.77,0,1.2,0a4.4,4.4,0,0,1,1.12.2v8.79a12.9,12.9,0,0,0-1.64-.32A12,12,0,0,0,217.5,64a10.15,10.15,0,0,0-5.27,1.2,9.67,9.67,0,0,0-3.12,2.88,10.41,10.41,0,0,0-1.52,3.43,13.94,13.94,0,0,0-.4,2.8V94.88H197.6Z" transform="translate(-12 -11.68)"/><path class="cls-1" d="M260.27,76.18v1.28a11.13,11.13,0,0,1-.08,1.28H231a9.51,9.51,0,0,0,3.52,6.75,12.1,12.1,0,0,0,3.43,2,11.29,11.29,0,0,0,4,.72A12.76,12.76,0,0,0,248,86.85a11.41,11.41,0,0,0,4.08-3.64l6.39,5.12Q252.84,96,242.05,96a23.46,23.46,0,0,1-8.23-1.4,19.31,19.31,0,0,1-6.52-4A17.86,17.86,0,0,1,223,84.37a21.62,21.62,0,0,1-1.56-8.43A22,22,0,0,1,223,67.51,18.68,18.68,0,0,1,233.7,56.88a21.43,21.43,0,0,1,8-1.48,20.22,20.22,0,0,1,7.39,1.32A16,16,0,0,1,255,60.63a18.19,18.19,0,0,1,3.87,6.48A26.76,26.76,0,0,1,260.27,76.18Zm-9.59-4.32a11.65,11.65,0,0,0-.52-3.51,7.87,7.87,0,0,0-4.47-5,10.07,10.07,0,0,0-4-.76,10.78,10.78,0,0,0-7.31,2.6A9.44,9.44,0,0,0,231,71.86Z" transform="translate(-12 -11.68)"/><path class="cls-1" d="M305.45,94.88h-9.11V89.12h-.16a13,13,0,0,1-5.55,5.12A17,17,0,0,1,283,96a18.28,18.28,0,0,1-7.87-1.64,17.94,17.94,0,0,1-5.91-4.4,19.32,19.32,0,0,1-3.76-6.47,23.6,23.6,0,0,1-1.32-7.95,22.78,22.78,0,0,1,1.36-7.91,19.44,19.44,0,0,1,3.84-6.4,17.91,17.91,0,0,1,13.42-5.83,17.06,17.06,0,0,1,4.72.6,16.74,16.74,0,0,1,3.64,1.48,13.63,13.63,0,0,1,2.67,1.91,15.54,15.54,0,0,1,1.84,2h.24V34.46h9.59ZM273.88,75.54a15.4,15.4,0,0,0,.68,4.47,12.11,12.11,0,0,0,2,4A10.76,10.76,0,0,0,280,86.89a11,11,0,0,0,9.59,0,11.57,11.57,0,0,0,3.55-2.84,12.12,12.12,0,0,0,2.24-4,13.36,13.36,0,0,0,.76-4.43,13.82,13.82,0,0,0-.76-4.48,12.18,12.18,0,0,0-5.79-6.87,9.77,9.77,0,0,0-4.72-1.12A10.41,10.41,0,0,0,280,64.31a10.28,10.28,0,0,0-3.44,2.84,12.26,12.26,0,0,0-2,3.95A15.1,15.1,0,0,0,273.88,75.54Z" transform="translate(-12 -11.68)"/><path class="cls-1" d="M330.65,79.3H311.47V71.14h19.18Z" transform="translate(-12 -11.68)"/><path class="cls-1" d="M335.31,43.49a5.53,5.53,0,0,1,1.72-4,5.93,5.93,0,0,1,4.36-1.71,6.35,6.35,0,0,1,4.43,1.63,5.62,5.62,0,0,1,0,8.24,6.35,6.35,0,0,1-4.43,1.63A5.93,5.93,0,0,1,337,47.53,5.52,5.52,0,0,1,335.31,43.49Zm1.36,13h9.59V94.88h-9.59Z" transform="translate(-12 -11.68)"/><path class="cls-1" d="M350.42,64.19V56.52h6.71V45.41h9.43V56.52h9.59v7.67h-9.59V82a8.78,8.78,0,0,0,.92,4.24c.61,1.12,2,1.68,4.12,1.68a12,12,0,0,0,2.07-.2,9,9,0,0,0,2-.6l.32,7.51a15.84,15.84,0,0,1-3,.76,20.92,20.92,0,0,1-3.35.28,15.33,15.33,0,0,1-6.24-1.08,9.42,9.42,0,0,1-3.79-3,10.89,10.89,0,0,1-1.92-4.31,24.9,24.9,0,0,1-.52-5.24V64.19Z" transform="translate(-12 -11.68)"/></svg>